<?xml version="1.0" encoding="utf-8"?>
<!-- Generator: Adobe Illustrator 24.1.2, SVG Export Plug-In . SVG Version: 6.00 Build 0)  -->
<svg version="1.1" id="Layer_1" xmlns="http://www.w3.org/2000/svg" xmlns:xlink="http://www.w3.org/1999/xlink" x="0px" y="0px"
	 viewBox="0 0 585.8 145.8" style="enable-background:new 0 0 585.8 145.8;" xml:space="preserve">
<style type="text/css">
	.st0{fill:none;stroke:#2B2A29;stroke-miterlimit:22.93;}
	.st1{fill:#1564D9;}
	.st2{fill:none;stroke:#000000;stroke-width:0.85;stroke-miterlimit:22.93;}
	.st3{fill:#FFFF00;}
	.st4{fill-rule:evenodd;clip-rule:evenodd;fill:#FFFF00;}
	.st5{enable-background:new    ;}
	.st6{fill:#2B2A29;}
</style>
<g id="Layer_2_1_">
	<g id="Layer_1-2">
		<rect x="0.3" y="0.3" class="st0" width="585.2" height="145.3"/>
		<polygon class="st1" points="504,95.8 548.3,95.8 548.3,89.6 512.6,89.6 512.6,72.2 528.9,72.2 528.9,66 512.6,66 512.6,46.3 
			547.3,46.3 547.3,40.1 504,40.1 		"/>
		<polygon class="st2" points="504,95.8 548.3,95.8 548.3,89.6 512.6,89.6 512.6,72.2 528.9,72.2 528.9,66 512.6,66 512.6,46.3 
			547.3,46.3 547.3,40.1 504,40.1 		"/>
		<polygon class="st1" points="427.9,95.8 436.5,95.8 436.5,56.9 458.6,77.7 459.4,77.7 481.6,56.9 481.6,95.8 490.2,95.8 
			490.2,38.9 489.4,38.9 459,68.1 428.7,38.9 427.9,38.9 		"/>
		<polygon class="st2" points="427.9,95.8 436.5,95.8 436.5,56.9 458.6,77.7 459.4,77.7 481.6,56.9 481.6,95.8 490.2,95.8 
			490.2,38.9 489.4,38.9 459,68.1 428.7,38.9 427.9,38.9 		"/>
		<polygon class="st1" points="351.8,95.8 360.4,95.8 360.4,56.9 382.5,77.7 383.3,77.7 405.5,56.9 405.5,95.8 414.1,95.8 
			414.1,38.9 413.3,38.9 382.9,68.1 352.6,38.9 351.8,38.9 		"/>
		<polygon class="st2" points="351.8,95.8 360.4,95.8 360.4,56.9 382.5,77.7 383.3,77.7 405.5,56.9 405.5,95.8 414.1,95.8 
			414.1,38.9 413.3,38.9 382.9,68.1 352.6,38.9 351.8,38.9 		"/>
		<path class="st1" d="M227.1,95.8h17c25.3,0,37.6-12.4,37.6-27.9s-12.2-27.9-37.6-27.9h-17L227.1,95.8z M235.7,89.6V46.3h8.3
			c20.5,0,29,9.6,29,21.7s-8.5,21.7-29,21.7H235.7z"/>
		<path class="st2" d="M227.1,95.8h17c25.3,0,37.6-12.4,37.6-27.9s-12.2-27.9-37.6-27.9h-17L227.1,95.8z M235.7,89.6V46.3h8.3
			c20.5,0,29,9.6,29,21.7s-8.5,21.7-29,21.7H235.7z"/>
		<polygon class="st1" points="212.5,97.4 213.2,97.4 213.2,40.1 204.6,40.1 204.6,80.2 159.9,38.5 159.1,38.5 159.1,95.8 
			167.7,95.8 167.7,56 		"/>
		<polygon class="st2" points="212.5,97.4 213.2,97.4 213.2,40.1 204.6,40.1 204.6,80.2 159.9,38.5 159.1,38.5 159.1,95.8 
			167.7,95.8 167.7,56 		"/>
		<polygon class="st1" points="128.3,74.4 111.2,74.4 108.2,80.3 131.3,80.3 		"/>
		<polygon class="st2" points="128.3,74.4 111.2,74.4 108.2,80.3 131.3,80.3 		"/>
		<polygon class="st1" points="106.1,78.8 119.7,51.7 131.1,74 131.1,73.9 138.7,88.9 138.6,88.9 142.1,95.8 151.1,95.8 120.1,38.5 
			119.3,38.5 97,79.8 103.7,83.2 		"/>
		<polygon class="st2" points="106.1,78.8 119.7,51.7 131.1,74 131.1,73.9 138.7,88.9 138.6,88.9 142.1,95.8 151.1,95.8 120.1,38.5 
			119.3,38.5 97,79.8 103.7,83.2 		"/>
		<polygon class="st1" points="67.5,97.4 68.3,97.4 90.9,54.2 84.1,50.8 67.9,83.8 46.5,40.1 37.5,40.1 		"/>
		<polygon class="st2" points="67.5,97.4 68.3,97.4 90.9,54.2 84.1,50.8 67.9,83.8 46.5,40.1 37.5,40.1 		"/>
		<polygon class="st1" points="320.5,74.1 303.3,74.1 300.4,79.9 323.4,79.9 		"/>
		<polygon class="st2" points="320.5,74.1 303.3,74.1 300.4,79.9 323.4,79.9 		"/>
		<polygon class="st1" points="298.1,78.8 311.8,51.7 323.1,74 323.1,73.9 330.8,88.9 330.7,88.9 334.2,95.8 343.2,95.8 312.2,38.5 
			311.4,38.5 280.4,95.8 289.4,95.8 295,84.6 		"/>
		<polygon class="st2" points="298.1,78.8 311.8,51.7 323.1,74 323.1,73.9 330.8,88.9 330.7,88.9 334.2,95.8 343.2,95.8 312.2,38.5 
			311.4,38.5 280.4,95.8 289.4,95.8 295,84.6 		"/>
		
			<rect x="89.1" y="86" transform="matrix(0.4518 -0.8921 0.8921 0.4518 -28.0509 134.961)" class="st3" width="13.5" height="8.6"/>
		
			<rect x="89.1" y="86" transform="matrix(0.4518 -0.8921 0.8921 0.4518 -28.0509 134.961)" class="st2" width="13.5" height="8.6"/>
		
			<rect x="87.2" y="96.7" transform="matrix(0.4518 -0.8921 0.8921 0.4518 -40.5148 136.1698)" class="st3" width="6.7" height="8.6"/>
		
			<rect x="87.2" y="96.7" transform="matrix(0.4518 -0.8921 0.8921 0.4518 -40.5148 136.1698)" class="st2" width="6.7" height="8.6"/>
		<polygon class="st4" points="82.7,115.9 82.4,109.7 82,103.4 87.6,106.2 93.2,109.1 88,112.5 		"/>
		<polygon class="st2" points="82.7,115.9 82.4,109.7 82,103.4 87.6,106.2 93.2,109.1 88,112.5 		"/>
		
			<rect x="85.2" y="39.4" transform="matrix(0.4518 -0.8921 0.8921 0.4518 11.3921 106.0218)" class="st3" width="13.5" height="8.6"/>
		
			<rect x="85.2" y="39.4" transform="matrix(0.4518 -0.8921 0.8921 0.4518 11.3921 106.0218)" class="st2" width="13.5" height="8.6"/>
		
			<rect x="93.8" y="28.7" transform="matrix(0.4518 -0.8921 0.8921 0.4518 23.8787 104.7923)" class="st3" width="6.7" height="8.6"/>
		
			<rect x="93.8" y="28.7" transform="matrix(0.4518 -0.8921 0.8921 0.4518 23.8787 104.7923)" class="st2" width="6.7" height="8.6"/>
		<polygon class="st4" points="105.1,18.1 105.4,24.4 105.7,30.6 100.1,27.8 94.5,24.9 99.8,21.5 		"/>
		<polygon class="st2" points="105.1,18.1 105.4,24.4 105.7,30.6 100.1,27.8 94.5,24.9 99.8,21.5 		"/>
		<g class="st5">
			<path class="st6" d="M121,108.1h0.2c0.4,0,0.7,0.4,0.9,1.2l2.9,10h0.1c2-7,3.1-10.7,3.2-10.9c0.2-0.2,0.4-0.3,0.5-0.3h0.1
				c0.5,0,0.8,0.5,0.9,1.4c0.2,0.5,1.1,3.8,2.8,9.8h0l3.1-10.8c0.2-0.2,0.4-0.3,0.5-0.3h0.2c0.5,0.1,0.7,0.3,0.7,0.6v0.2l-3.9,13.6
				c-0.2,0.2-0.4,0.3-0.6,0.3h0c-0.5,0-0.8-0.5-0.9-1.4c-1.7-5.7-2.6-9-2.8-9.8h0l-3.1,10.9c-0.2,0.2-0.4,0.3-0.6,0.3h-0.2
				c-0.4,0-0.7-0.5-0.9-1.5c-2.2-7.6-3.4-11.7-3.6-12.5C120.5,108.3,120.7,108.1,121,108.1z"/>
			<path class="st6" d="M139.3,108.1h0.2c0.4,0,0.7,0.4,0.9,1.2l2.9,10h0.1c2-7,3.1-10.7,3.2-10.9c0.2-0.2,0.4-0.3,0.5-0.3h0.1
				c0.5,0,0.8,0.5,0.9,1.4c0.2,0.5,1.1,3.8,2.8,9.8h0l3.1-10.8c0.2-0.2,0.4-0.3,0.5-0.3h0.2c0.5,0.1,0.7,0.3,0.7,0.6v0.2l-3.9,13.6
				c-0.2,0.2-0.4,0.3-0.6,0.3h0c-0.5,0-0.8-0.5-0.9-1.4c-1.7-5.7-2.6-9-2.8-9.8h0l-3.1,10.9c-0.2,0.2-0.4,0.3-0.6,0.3h-0.2
				c-0.4,0-0.7-0.5-0.9-1.5c-2.2-7.6-3.4-11.7-3.6-12.5C138.7,108.3,138.9,108.1,139.3,108.1z"/>
			<path class="st6" d="M157.5,108.1h0.2c0.4,0,0.7,0.4,0.9,1.2l2.9,10h0.1c2-7,3.1-10.7,3.2-10.9c0.2-0.2,0.4-0.3,0.5-0.3h0.1
				c0.5,0,0.8,0.5,0.9,1.4c0.2,0.5,1.1,3.8,2.8,9.8h0l3.1-10.8c0.2-0.2,0.4-0.3,0.5-0.3h0.2c0.5,0.1,0.7,0.3,0.7,0.6v0.2l-3.9,13.6
				c-0.2,0.2-0.4,0.3-0.6,0.3h0c-0.5,0-0.8-0.5-0.9-1.4c-1.7-5.7-2.6-9-2.8-9.8h0l-3.1,10.9c-0.2,0.2-0.4,0.3-0.6,0.3h-0.2
				c-0.4,0-0.7-0.5-0.9-1.5c-2.2-7.6-3.4-11.7-3.6-12.5C156.9,108.3,157.2,108.1,157.5,108.1z"/>
			<path class="st6" d="M177.4,120c0.7,0,1.2,0.4,1.4,1.3v0.2c0,0.5-0.3,0.9-1,1.2c-0.1,0-0.2,0.1-0.4,0.1h0c-0.8,0-1.2-0.5-1.4-1.4
				c0-0.6,0.3-1,1-1.3C177.1,120,177.3,120,177.4,120z"/>
			<path class="st6" d="M181.5,108.1h0.2c0.5,0.1,0.7,0.3,0.7,0.6v12.6h6.3c0.4,0,0.7,0.3,0.7,0.8c-0.1,0.5-0.4,0.7-0.7,0.7h-7.1
				c-0.4,0-0.6-0.3-0.7-0.8V109C180.9,108.4,181.1,108.1,181.5,108.1z"/>
			<path class="st6" d="M192,108l0.2,0h1.5l0.2,0c0.5,0.1,0.8,0.4,0.8,0.8c-0.1,0.5-0.3,0.8-0.7,0.8h-0.2v11.8h0.2
				c0.3,0,0.6,0.2,0.7,0.7v0c-0.1,0.5-0.3,0.7-0.7,0.7H192c-0.5-0.1-0.7-0.3-0.7-0.7v0c0.1-0.5,0.3-0.7,0.7-0.7h0.2v-11.8H192
				c-0.4,0-0.7-0.3-0.7-0.8v0C191.2,108.3,191.5,108.1,192,108z"/>
			<path class="st6" d="M197.4,108l0.2,0h7.6l0.2,0c0.4,0,0.7,0.3,0.8,0.9c-0.1,0.5-0.4,0.7-0.9,0.7h-7.1v5.3h4.7l0.6,0
				c0.3,0,0.6,0.3,0.7,0.8c0,0.3-0.2,0.6-0.6,0.8l-0.8,0h-4.5v5.5l0,0.2c-0.1,0.5-0.4,0.7-0.7,0.7h-0.1c-0.5-0.1-0.7-0.3-0.7-0.7
				v-13.3C196.8,108.3,197,108.1,197.4,108L197.4,108z"/>
			<path class="st6" d="M207.7,108.1h9.6c0.5,0.1,0.7,0.3,0.7,0.7v0.2c0,0.4-0.3,0.6-0.9,0.7h-3.9v12.5c0,0.4-0.2,0.6-0.7,0.7h0
				c-0.4,0-0.6-0.3-0.7-0.8v-12.4h-3.9c-0.5-0.1-0.8-0.4-0.8-0.8C207.2,108.3,207.4,108.1,207.7,108.1z"/>
			<path class="st6" d="M223.9,108.1c1.3,0,2.3,0.6,3.2,1.7l0,0.2v0.2c0,0.3-0.2,0.5-0.7,0.6c-0.2,0-0.6-0.3-1.1-0.8
				c-0.5-0.3-0.9-0.4-1.3-0.4h-0.2c-0.9,0-1.5,0.5-2,1.4c-0.1,0.2-0.2,0.4-0.2,0.7v0.3c0,1,0.6,1.7,1.8,2.2c0.9,0,1.8,0.4,2.8,1.2
				c1,1,1.4,2.1,1.4,3.2c0,1.4-0.6,2.6-1.8,3.5c-0.8,0.5-1.6,0.8-2.5,0.8c-1.5,0-2.7-0.6-3.7-1.9l-0.1-0.3c0.1-0.5,0.3-0.7,0.7-0.7
				c0.3,0,0.6,0.3,1.1,0.8c0.6,0.4,1.2,0.7,1.8,0.7h0.3c1,0,1.9-0.6,2.5-1.8c0.1-0.4,0.2-0.7,0.2-0.9v-0.4c0-1-0.6-1.9-1.8-2.5
				l-2-0.6c-1.5-0.9-2.2-2-2.2-3.4v-0.3c0-1.4,0.7-2.4,2.2-3.2C222.9,108.2,223.4,108.1,223.9,108.1z"/>
			<path class="st6" d="M230.1,108l0.2,0h7.6l0.2,0c0.4,0,0.7,0.3,0.8,0.9c-0.1,0.5-0.4,0.7-0.9,0.7h-7.1v5.3h4.7l0.6,0
				c0.3,0,0.6,0.3,0.7,0.8c0,0.3-0.2,0.6-0.6,0.8l-0.8,0h-4.5v5h7.3c0.4,0,0.6,0.3,0.7,0.8c-0.1,0.5-0.4,0.7-0.7,0.7h-8.1
				c-0.5-0.1-0.7-0.3-0.7-0.7v-13.3C229.5,108.3,229.7,108.1,230.1,108L230.1,108z"/>
			<path class="st6" d="M241.1,108.1h3.2c1.4,0,2.5,0.7,3.4,2.2c0.3,0.6,0.4,1.1,0.4,1.8v0.2c0,1.4-0.7,2.5-2,3.3l-0.4,0.2
				c2.4,4.1,3.5,6.1,3.5,6.2v0.2c0,0.4-0.2,0.6-0.7,0.7h0c-0.4,0-0.8-0.4-1.2-1.3l-3.2-5.4h-2.2v6.1c0,0.4-0.2,0.6-0.7,0.7h0
				c-0.4,0-0.6-0.3-0.7-0.8V109C240.5,108.4,240.7,108.1,241.1,108.1z M241.9,109.6v5h2.2c1.2,0,2-0.7,2.4-2l0-0.3v-0.3
				c0-1-0.5-1.7-1.6-2.2c-0.3-0.1-0.8-0.2-1.4-0.2H241.9z"/>
			<path class="st6" d="M251.1,108c0.4,0,0.8,0.5,1,1.6l3.8,10.1h0l4.3-11.4c0.2-0.2,0.4-0.3,0.6-0.3h0c0.4,0,0.6,0.3,0.7,0.8
				l-4.9,13.2c-0.1,0.5-0.4,0.8-0.8,0.8h0c-0.5,0-0.8-0.5-1.1-1.5c-3.1-8.1-4.6-12.3-4.6-12.4v-0.1
				C250.3,108.4,250.6,108.1,251.1,108z"/>
			<path class="st6" d="M264.1,108l0.2,0h1.5l0.2,0c0.5,0.1,0.8,0.4,0.8,0.8c-0.1,0.5-0.3,0.8-0.7,0.8h-0.2v11.8h0.2
				c0.3,0,0.6,0.2,0.7,0.7v0c-0.1,0.5-0.3,0.7-0.7,0.7h-1.8c-0.5-0.1-0.7-0.3-0.7-0.7v0c0.1-0.5,0.3-0.7,0.7-0.7h0.2v-11.8h-0.2
				c-0.4,0-0.7-0.3-0.7-0.8v0C263.4,108.3,263.6,108.1,264.1,108z"/>
			<path class="st6" d="M276.2,108.1c1.5,0,2.9,0.5,4.3,1.4c0.1,0.2,0.2,0.4,0.2,0.5v0.1c0,0.4-0.3,0.7-0.8,0.7h0l-1.4-0.7
				c-0.9-0.3-1.6-0.4-2.2-0.4c-1.8,0-3.4,0.8-4.8,2.5c-0.7,1.1-1,2.2-1,3.3c0,2.2,1,3.9,3,5.1c0.9,0.5,1.8,0.7,2.7,0.7h0.1
				c1.1,0,2.3-0.4,3.4-1.1h0.2c0.5,0.1,0.7,0.3,0.7,0.7v0.1c0,0.5-0.9,1.1-2.6,1.6c-0.5,0.2-1.1,0.2-1.7,0.2h-0.2
				c-2.4,0-4.5-1.1-6.1-3.4c-0.8-1.3-1.2-2.6-1.2-4c0-2.5,1.2-4.6,3.5-6.2C273.7,108.5,274.9,108.1,276.2,108.1z"/>
			<path class="st6" d="M283.6,108l0.2,0h7.6l0.2,0c0.4,0,0.7,0.3,0.8,0.9c-0.1,0.5-0.4,0.7-0.9,0.7h-7.1v5.3h4.7l0.6,0
				c0.3,0,0.6,0.3,0.7,0.8c0,0.3-0.2,0.6-0.6,0.8l-0.8,0h-4.5v5h7.3c0.4,0,0.6,0.3,0.7,0.8c-0.1,0.5-0.4,0.7-0.7,0.7h-8.1
				c-0.5-0.1-0.7-0.3-0.7-0.7v-13.3C283,108.3,283.2,108.1,283.6,108L283.6,108z"/>
			<path class="st6" d="M295,116.2h4.1c0.4,0,0.7,0.3,0.8,0.8c-0.1,0.5-0.4,0.8-0.8,0.8H295c-0.4,0-0.7-0.3-0.8-0.9
				C294.3,116.4,294.6,116.2,295,116.2z"/>
			<path class="st6" d="M301.5,108c0.4,0,0.8,0.5,1,1.6l3.8,10.1h0l4.3-11.4c0.2-0.2,0.4-0.3,0.6-0.3h0c0.4,0,0.6,0.3,0.7,0.8
				l-4.9,13.2c-0.1,0.5-0.4,0.8-0.8,0.8h0c-0.5,0-0.8-0.5-1.1-1.5c-3.1-8.1-4.6-12.3-4.6-12.4v-0.1C300.7,108.4,301,108.1,301.5,108
				z"/>
			<path class="st6" d="M316.4,108.2c0.5,0,0.8,0.5,1,1.4c3.1,8.1,4.7,12.2,4.7,12.4v0.1c0,0.4-0.2,0.6-0.7,0.7h0
				c-0.5,0-0.8-0.4-1-1.3l-1.7-4.5h-4.5l-2.1,5.6c-0.2,0.2-0.4,0.2-0.5,0.2h-0.1c-0.5-0.1-0.7-0.3-0.7-0.7v0l1.3-3.5
				c2.3-6,3.5-9.3,3.7-9.9C316,108.3,316.2,108.2,316.4,108.2z M316.4,111.1l-1.6,4.4h3.3v0L316.4,111.1L316.4,111.1z"/>
			<path class="st6" d="M324,108.1h0.2c0.3,0,0.6,0.3,0.9,0.8c0.4,0.4,3.2,4,8.4,10.8c0.1,0,0.1,0,0.1,0.1l0,0h0v-11
				c0.1-0.5,0.3-0.7,0.7-0.7h0.1c0.4,0,0.6,0.2,0.7,0.7V122c0,0.4-0.3,0.7-0.8,0.8c-0.3,0-0.7-0.5-1.4-1.4l-8.1-10.3v10.9
				c0,0.4-0.2,0.6-0.7,0.7h0c-0.4,0-0.6-0.3-0.7-0.8v-13C323.4,108.4,323.6,108.1,324,108.1z"/>
			<path class="st6" d="M337.8,108l0.2,0h2l0.4,0c2.2,0,4.1,1,5.8,2.9c1,1.3,1.6,2.9,1.6,4.6c0,2.4-1,4.3-3.1,5.9
				c-1.3,0.9-2.7,1.4-4.2,1.4h-2.6c-0.5-0.1-0.7-0.3-0.7-0.7v-13.3C337.1,108.3,337.4,108.1,337.8,108L337.8,108z M338.6,109.6v11.7
				h1.7c2.5,0,4.3-1.2,5.5-3.6c0.3-0.8,0.5-1.6,0.5-2.3c0-1.8-0.8-3.3-2.4-4.7c-1-0.8-2.4-1.2-4.4-1.2H338.6z"/>
			<path class="st6" d="M354.5,108.2c0.5,0,0.8,0.5,1,1.4c3.1,8.1,4.7,12.2,4.7,12.4v0.1c0,0.4-0.2,0.6-0.7,0.7h0
				c-0.5,0-0.8-0.4-1-1.3l-1.7-4.5h-4.5l-2.1,5.6c-0.2,0.2-0.4,0.2-0.5,0.2h-0.1c-0.5-0.1-0.7-0.3-0.7-0.7v0l1.3-3.5
				c2.3-6,3.5-9.3,3.7-9.9C354,108.3,354.3,108.2,354.5,108.2z M354.5,111.1l-1.6,4.4h3.3v0L354.5,111.1L354.5,111.1z"/>
			<path class="st6" d="M362.2,108.1h0.2c0.4,0,0.7,0.3,0.9,1l4.9,11c0.1-0.2,1.3-2.7,3.4-7.7l1.9-4.1c0.2-0.2,0.3-0.2,0.5-0.2h0.2
				c0.4,0,0.6,0.3,0.7,0.9V122c-0.1,0.5-0.3,0.8-0.7,0.8h0c-0.5-0.1-0.7-0.3-0.7-0.7v-9.6h0c-2.9,6.6-4.4,9.9-4.5,10.1
				c-0.2,0.2-0.4,0.3-0.6,0.3c-0.5,0-0.9-0.5-1.2-1.6l-3.9-8.7h0v9.6c0,0.4-0.2,0.6-0.7,0.7h0c-0.4,0-0.6-0.3-0.7-0.8V109
				C361.6,108.4,361.9,108.1,362.2,108.1z"/>
			<path class="st6" d="M377.5,108.1h0.2c0.4,0,0.7,0.3,0.9,1l4.9,11c0.1-0.2,1.3-2.7,3.4-7.7l1.9-4.1c0.2-0.2,0.3-0.2,0.5-0.2h0.2
				c0.4,0,0.6,0.3,0.7,0.9V122c-0.1,0.5-0.3,0.8-0.7,0.8h0c-0.5-0.1-0.7-0.3-0.7-0.7v-9.6h0c-2.9,6.6-4.4,9.9-4.5,10.1
				c-0.2,0.2-0.4,0.3-0.6,0.3c-0.5,0-0.9-0.5-1.2-1.6l-3.9-8.7h0v9.6c0,0.4-0.2,0.6-0.7,0.7h0c-0.4,0-0.6-0.3-0.7-0.8V109
				C376.9,108.4,377.1,108.1,377.5,108.1z"/>
			<path class="st6" d="M392.9,108l0.2,0h7.6l0.2,0c0.4,0,0.7,0.3,0.8,0.9c-0.1,0.5-0.4,0.7-0.9,0.7h-7.1v5.3h4.7l0.6,0
				c0.3,0,0.6,0.3,0.7,0.8c0,0.3-0.2,0.6-0.6,0.8l-0.8,0h-4.5v5h7.3c0.4,0,0.6,0.3,0.7,0.8c-0.1,0.5-0.4,0.7-0.7,0.7h-8.1
				c-0.5-0.1-0.7-0.3-0.7-0.7v-13.3C392.2,108.3,392.5,108.1,392.9,108L392.9,108z"/>
			<path class="st6" d="M405.5,120c0.7,0,1.2,0.4,1.4,1.3v0.2c0,0.5-0.3,0.9-1,1.2c-0.1,0-0.2,0.1-0.4,0.1h0c-0.8,0-1.2-0.5-1.4-1.4
				c0-0.6,0.3-1,1-1.3C405.2,120,405.3,120,405.5,120z"/>
			<path class="st6" d="M409.6,108.1h3.5c1.4,0,2.6,0.7,3.5,2.1c0.4,0.7,0.5,1.4,0.5,2v0.3c0,1.3-0.6,2.4-1.8,3.3
				c-0.8,0.5-1.6,0.8-2.3,0.8h-2.7v5.5c0,0.4-0.2,0.6-0.7,0.7h0c-0.4,0-0.6-0.3-0.7-0.8v-13.1C409,108.4,409.2,108.1,409.6,108.1z
				 M410.4,109.6v5.5h2.4c1.3,0,2.2-0.6,2.7-1.9c0.1-0.3,0.2-0.6,0.2-0.9c0-1.1-0.6-2-1.8-2.5c-0.3-0.1-0.6-0.2-1-0.2H410.4z"/>
			<path class="st6" d="M419.4,108.1h9.6c0.5,0.1,0.7,0.3,0.7,0.7v0.2c0,0.4-0.3,0.6-0.9,0.7h-3.9v12.5c0,0.4-0.2,0.6-0.7,0.7h0
				c-0.4,0-0.6-0.3-0.7-0.8v-12.4h-3.9c-0.5-0.1-0.8-0.4-0.8-0.8C418.8,108.3,419,108.1,419.4,108.1z"/>
		</g>
	</g>
</g>
</svg>
