<svg xmlns="http://www.w3.org/2000/svg" viewBox="0 0 585.79 145.84"><defs><style>.cls-1,.cls-3{fill:none;stroke-miterlimit:22.93;}.cls-1{stroke:#2b2a29;stroke-width:0.57px;}.cls-2{fill:#1564d9;}.cls-3{stroke:#000;stroke-width:0.85px;}.cls-4,.cls-5{fill:#ff0;}.cls-5{fill-rule:evenodd;}.cls-6{font-size:21px;fill:#2b2a29;font-family:Comfortaa;}.cls-7{letter-spacing:-0.11em;}</style></defs><g id="Layer_2" data-name="Layer 2"><g id="Layer_1-2" data-name="Layer 1"><rect class="cls-1" x="0.28" y="0.28" width="585.23" height="145.27"/><polygon class="cls-2" points="504 95.85 548.3 95.85 548.3 89.64 512.6 89.64 512.6 72.2 528.88 72.2 528.88 65.98 512.6 65.98 512.6 46.31 547.32 46.31 547.32 40.1 504 40.1 504 95.85"/><polygon class="cls-3" points="504 95.85 548.3 95.85 548.3 89.64 512.6 89.64 512.6 72.2 528.88 72.2 528.88 65.98 512.6 65.98 512.6 46.31 547.32 46.31 547.32 40.1 504 40.1 504 95.85"/><polygon class="cls-2" points="427.91 95.85 436.51 95.85 436.51 56.9 458.62 77.69 459.4 77.69 481.6 56.9 481.6 95.85 490.21 95.85 490.21 38.9 489.43 38.9 459.01 68.14 428.69 38.9 427.91 38.9 427.91 95.85"/><polygon class="cls-3" points="427.91 95.85 436.51 95.85 436.51 56.9 458.62 77.69 459.4 77.69 481.6 56.9 481.6 95.85 490.21 95.85 490.21 38.9 489.43 38.9 459.01 68.14 428.69 38.9 427.91 38.9 427.91 95.85"/><polygon class="cls-2" points="351.82 95.85 360.43 95.85 360.43 56.9 382.53 77.69 383.31 77.69 405.51 56.9 405.51 95.85 414.12 95.85 414.12 38.9 413.34 38.9 382.92 68.14 352.6 38.9 351.82 38.9 351.82 95.85"/><polygon class="cls-3" points="351.82 95.85 360.43 95.85 360.43 56.9 382.53 77.69 383.31 77.69 405.51 56.9 405.51 95.85 414.12 95.85 414.12 38.9 413.34 38.9 382.92 68.14 352.6 38.9 351.82 38.9 351.82 95.85"/><path class="cls-2" d="M227.13,95.85h17c25.33,0,37.56-12.42,37.56-27.87S269.47,40.1,244.14,40.1h-17Zm8.6-6.21V46.31h8.32c20.53,0,29,9.64,29,21.67s-8.51,21.66-29,21.66Z"/><path class="cls-3" d="M227.13,95.85h17c25.33,0,37.56-12.42,37.56-27.87S269.47,40.1,244.14,40.1h-17Zm8.6-6.21V46.31h8.32c20.53,0,29,9.64,29,21.67s-8.51,21.66-29,21.66Z"/><polygon class="cls-2" points="212.46 97.45 213.24 97.45 213.24 40.1 204.63 40.1 204.63 80.16 159.94 38.51 159.06 38.51 159.06 95.85 167.66 95.85 167.66 56.03 212.46 97.45"/><polygon class="cls-3" points="212.46 97.45 213.24 97.45 213.24 40.1 204.63 40.1 204.63 80.16 159.94 38.51 159.06 38.51 159.06 95.85 167.66 95.85 167.66 56.03 212.46 97.45"/><polygon class="cls-2" points="128.31 74.44 111.18 74.44 108.2 80.25 131.28 80.25 128.31 74.44"/><polygon class="cls-3" points="128.31 74.44 111.18 74.44 108.2 80.25 131.28 80.25 128.31 74.44"/><polygon class="cls-2" points="106.05 78.81 119.74 51.73 131.07 73.97 131.1 73.95 138.72 88.86 138.63 88.91 142.14 95.85 151.14 95.85 120.13 38.51 119.35 38.51 97.01 79.83 103.74 83.23 106.05 78.81"/><polygon class="cls-3" points="106.05 78.81 119.74 51.73 131.07 73.97 131.1 73.95 138.72 88.86 138.63 88.91 142.14 95.85 151.14 95.85 120.13 38.51 119.35 38.51 97.01 79.83 103.74 83.23 106.05 78.81"/><polygon class="cls-2" points="67.52 97.45 68.3 97.45 90.92 54.23 84.1 50.78 67.91 83.83 46.49 40.1 37.49 40.1 67.52 97.45"/><polygon class="cls-3" points="67.52 97.45 68.3 97.45 90.92 54.23 84.1 50.78 67.91 83.83 46.49 40.1 37.49 40.1 67.52 97.45"/><polygon class="cls-2" points="320.45 74.1 303.33 74.1 300.35 79.92 323.43 79.92 320.45 74.1"/><polygon class="cls-3" points="320.45 74.1 303.33 74.1 300.35 79.92 323.43 79.92 320.45 74.1"/><polygon class="cls-2" points="298.08 78.81 311.77 51.73 323.1 73.97 323.13 73.95 330.75 88.86 330.66 88.91 334.17 95.85 343.16 95.85 312.16 38.51 311.38 38.51 280.37 95.85 289.37 95.85 295.05 84.62 298.08 78.81"/><polygon class="cls-3" points="298.08 78.81 311.77 51.73 323.1 73.97 323.13 73.95 330.75 88.86 330.66 88.91 334.17 95.85 343.16 95.85 312.16 38.51 311.38 38.51 280.37 95.85 289.37 95.85 295.05 84.62 298.08 78.81"/><rect class="cls-4" x="89.05" y="86" width="13.48" height="8.61" transform="translate(-28.05 134.96) rotate(-63.14)"/><rect class="cls-3" x="89.05" y="86" width="13.48" height="8.61" transform="translate(-28.05 134.96) rotate(-63.14)"/><rect class="cls-4" x="87.18" y="96.76" width="6.74" height="8.61" transform="translate(-40.53 136.17) rotate(-63.14)"/><rect class="cls-3" x="87.18" y="96.76" width="6.74" height="8.61" transform="translate(-40.53 136.17) rotate(-63.14)"/><polygon class="cls-5" points="82.7 115.93 82.37 109.66 82.04 103.4 87.64 106.24 93.23 109.09 87.97 112.51 82.7 115.93"/><polygon class="cls-3" points="82.7 115.93 82.37 109.66 82.04 103.4 87.64 106.24 93.23 109.09 87.97 112.51 82.7 115.93"/><rect class="cls-4" x="85.22" y="39.43" width="13.48" height="8.61" transform="translate(11.4 106.02) rotate(-63.14)"/><rect class="cls-3" x="85.22" y="39.43" width="13.48" height="8.61" transform="translate(11.4 106.02) rotate(-63.14)"/><rect class="cls-4" x="93.84" y="28.67" width="6.74" height="8.61" transform="translate(23.87 104.79) rotate(-63.14)"/><rect class="cls-3" x="93.84" y="28.67" width="6.74" height="8.61" transform="translate(23.87 104.79) rotate(-63.14)"/><polygon class="cls-5" points="105.05 18.11 105.38 24.37 105.71 30.64 100.12 27.79 94.53 24.94 99.79 21.52 105.05 18.11"/><polygon class="cls-3" points="105.05 18.11 105.38 24.37 105.71 30.64 100.12 27.79 94.53 24.94 99.79 21.52 105.05 18.11"/><text class="cls-6" transform="translate(120 122.81)">WWW.LIFTSERVICE-<tspan class="cls-7" x="180.35" y="0">V</tspan><tspan x="190.74" y="0">ANDAMME.PT</tspan></text></g></g></svg>