<?xml version="1.0" encoding="utf-8"?>
<!-- Generator: Adobe Illustrator 24.1.2, SVG Export Plug-In . SVG Version: 6.00 Build 0)  -->
<svg version="1.1" id="Layer_1" xmlns="http://www.w3.org/2000/svg" xmlns:xlink="http://www.w3.org/1999/xlink" x="0px" y="0px"
	 viewBox="0 0 585.8 145.8" style="enable-background:new 0 0 585.8 145.8;" xml:space="preserve">
<style type="text/css">
	@import url('https://fonts.googleapis.com/css2?family=Comfortaa&display=swap');
	@font-face {font-family: 'Comfortaa', cursive;}
	.st0{fill:none;stroke:#2B2A29;stroke-width:0.57;stroke-miterlimit:22.93;}
	.st1{fill:#1564D9;}
	.st2{fill:none;stroke:#000000;stroke-width:0.85;stroke-miterlimit:22.93;}
	.st3{fill:#FFFF00;}
	.st4{fill-rule:evenodd;clip-rule:evenodd;fill:#FFFF00;}
	.st5{fill:#2B2A29;}
	.st6{font-family:'Comfortaa';}
	.st7{font-size:21px;}
</style>
<g id="Layer_2_1_">
	<g id="Layer_1-2">
		<rect x="0.3" y="0.3" class="st0" width="585.2" height="145.3"/>
		<polygon class="st1" points="504,95.8 548.3,95.8 548.3,89.6 512.6,89.6 512.6,72.2 528.9,72.2 528.9,66 512.6,66 512.6,46.3 
			547.3,46.3 547.3,40.1 504,40.1 		"/>
		<polygon class="st2" points="504,95.8 548.3,95.8 548.3,89.6 512.6,89.6 512.6,72.2 528.9,72.2 528.9,66 512.6,66 512.6,46.3 
			547.3,46.3 547.3,40.1 504,40.1 		"/>
		<polygon class="st1" points="427.9,95.8 436.5,95.8 436.5,56.9 458.6,77.7 459.4,77.7 481.6,56.9 481.6,95.8 490.2,95.8 
			490.2,38.9 489.4,38.9 459,68.1 428.7,38.9 427.9,38.9 		"/>
		<polygon class="st2" points="427.9,95.8 436.5,95.8 436.5,56.9 458.6,77.7 459.4,77.7 481.6,56.9 481.6,95.8 490.2,95.8 
			490.2,38.9 489.4,38.9 459,68.1 428.7,38.9 427.9,38.9 		"/>
		<polygon class="st1" points="351.8,95.8 360.4,95.8 360.4,56.9 382.5,77.7 383.3,77.7 405.5,56.9 405.5,95.8 414.1,95.8 
			414.1,38.9 413.3,38.9 382.9,68.1 352.6,38.9 351.8,38.9 		"/>
		<polygon class="st2" points="351.8,95.8 360.4,95.8 360.4,56.9 382.5,77.7 383.3,77.7 405.5,56.9 405.5,95.8 414.1,95.8 
			414.1,38.9 413.3,38.9 382.9,68.1 352.6,38.9 351.8,38.9 		"/>
		<path class="st1" d="M227.1,95.8h17c25.3,0,37.6-12.4,37.6-27.9s-12.2-27.9-37.6-27.9h-17L227.1,95.8z M235.7,89.6V46.3h8.3
			c20.5,0,29,9.6,29,21.7s-8.5,21.7-29,21.7H235.7z"/>
		<path class="st2" d="M227.1,95.8h17c25.3,0,37.6-12.4,37.6-27.9s-12.2-27.9-37.6-27.9h-17L227.1,95.8z M235.7,89.6V46.3h8.3
			c20.5,0,29,9.6,29,21.7s-8.5,21.7-29,21.7H235.7z"/>
		<polygon class="st1" points="212.5,97.4 213.2,97.4 213.2,40.1 204.6,40.1 204.6,80.2 159.9,38.5 159.1,38.5 159.1,95.8 
			167.7,95.8 167.7,56 		"/>
		<polygon class="st2" points="212.5,97.4 213.2,97.4 213.2,40.1 204.6,40.1 204.6,80.2 159.9,38.5 159.1,38.5 159.1,95.8 
			167.7,95.8 167.7,56 		"/>
		<polygon class="st1" points="128.3,74.4 111.2,74.4 108.2,80.3 131.3,80.3 		"/>
		<polygon class="st2" points="128.3,74.4 111.2,74.4 108.2,80.3 131.3,80.3 		"/>
		<polygon class="st1" points="106.1,78.8 119.7,51.7 131.1,74 131.1,73.9 138.7,88.9 138.6,88.9 142.1,95.8 151.1,95.8 120.1,38.5 
			119.3,38.5 97,79.8 103.7,83.2 		"/>
		<polygon class="st2" points="106.1,78.8 119.7,51.7 131.1,74 131.1,73.9 138.7,88.9 138.6,88.9 142.1,95.8 151.1,95.8 120.1,38.5 
			119.3,38.5 97,79.8 103.7,83.2 		"/>
		<polygon class="st1" points="67.5,97.4 68.3,97.4 90.9,54.2 84.1,50.8 67.9,83.8 46.5,40.1 37.5,40.1 		"/>
		<polygon class="st2" points="67.5,97.4 68.3,97.4 90.9,54.2 84.1,50.8 67.9,83.8 46.5,40.1 37.5,40.1 		"/>
		<polygon class="st1" points="320.5,74.1 303.3,74.1 300.4,79.9 323.4,79.9 		"/>
		<polygon class="st2" points="320.5,74.1 303.3,74.1 300.4,79.9 323.4,79.9 		"/>
		<polygon class="st1" points="298.1,78.8 311.8,51.7 323.1,74 323.1,73.9 330.8,88.9 330.7,88.9 334.2,95.8 343.2,95.8 312.2,38.5 
			311.4,38.5 280.4,95.8 289.4,95.8 295,84.6 		"/>
		<polygon class="st2" points="298.1,78.8 311.8,51.7 323.1,74 323.1,73.9 330.8,88.9 330.7,88.9 334.2,95.8 343.2,95.8 312.2,38.5 
			311.4,38.5 280.4,95.8 289.4,95.8 295,84.6 		"/>
		
			<rect x="89.1" y="86" transform="matrix(0.4518 -0.8921 0.8921 0.4518 -28.0509 134.961)" class="st3" width="13.5" height="8.6"/>
		
			<rect x="89.1" y="86" transform="matrix(0.4518 -0.8921 0.8921 0.4518 -28.0509 134.961)" class="st2" width="13.5" height="8.6"/>
		
			<rect x="87.2" y="96.7" transform="matrix(0.4518 -0.8921 0.8921 0.4518 -40.5148 136.1698)" class="st3" width="6.7" height="8.6"/>
		
			<rect x="87.2" y="96.7" transform="matrix(0.4518 -0.8921 0.8921 0.4518 -40.5148 136.1698)" class="st2" width="6.7" height="8.6"/>
		<polygon class="st4" points="82.7,115.9 82.4,109.7 82,103.4 87.6,106.2 93.2,109.1 88,112.5 		"/>
		<polygon class="st2" points="82.7,115.9 82.4,109.7 82,103.4 87.6,106.2 93.2,109.1 88,112.5 		"/>
		
			<rect x="85.2" y="39.4" transform="matrix(0.4518 -0.8921 0.8921 0.4518 11.3921 106.0218)" class="st3" width="13.5" height="8.6"/>
		
			<rect x="85.2" y="39.4" transform="matrix(0.4518 -0.8921 0.8921 0.4518 11.3921 106.0218)" class="st2" width="13.5" height="8.6"/>
		
			<rect x="93.8" y="28.7" transform="matrix(0.4518 -0.8921 0.8921 0.4518 23.8787 104.7923)" class="st3" width="6.7" height="8.6"/>
		
			<rect x="93.8" y="28.7" transform="matrix(0.4518 -0.8921 0.8921 0.4518 23.8787 104.7923)" class="st2" width="6.7" height="8.6"/>
		<polygon class="st4" points="105.1,18.1 105.4,24.4 105.7,30.6 100.1,27.8 94.5,24.9 99.8,21.5 		"/>
		<polygon class="st2" points="105.1,18.1 105.4,24.4 105.7,30.6 100.1,27.8 94.5,24.9 99.8,21.5 		"/>
		<text transform="matrix(1 0 0 1 120 122.81)" class="st5 st6 st7">WWW.LIFTSERVICE-VANDAMME.PT</text>
	</g>
</g>
</svg>
