<svg id="Слой_2" data-name="Слой 2" xmlns="http://www.w3.org/2000/svg" viewBox="0 0 3000 2000"><defs><style>.cls-1{fill:#fff;}.cls-2{fill:#ebf2f9;}.cls-3{fill:#d2e4ff;}.cls-4{fill:#e27f2b;}.cls-5{fill:#e69d43;}.cls-6,.cls-7{fill:#aed3ff;}.cls-6{opacity:0.5;}.cls-8{fill:#283250;}.cls-9{fill:#233862;}.cls-10{fill:#d9935c;}.cls-11{fill:#cb7d45;}.cls-12{fill:#2b478b;}.cls-13{fill:#b64c41;}.cls-14{fill:#9ed9f0;}.cls-15{fill:#ffa412;}.cls-16{fill:#739af0;}.cls-17{fill:#4a75cb;}.cls-18{fill:#f1a34f;}.cls-19{fill:#74acbe;}.cls-20{fill:#e9f3fe;}.cls-21{fill:#bed4f4;}.cls-22{fill:#afcdfb;}</style></defs><rect class="cls-1" width="3000" height="2000"/><path class="cls-2" d="M2294,1828.55s254.18-6,362.79-160.1c196.77-279.08,108.09-523.82-242.21-505.61-391.88,20.38-343.55-844.75-1022.1-428.22-147.34,90.45-475.27-99.5-606.28,296.24C755.08,1125,521.11,1131.52,369.91,1207c-237.19,118.38-170.21,623.53,53.86,625.52S2294,1828.55,2294,1828.55Z"/><path class="cls-3" d="M1102.7,532.19h-12.17V421l-3.82-.34V376.5h0l1.11-3.66-532-160.27L333.72,362.41l2.14,3.17a13.14,13.14,0,0,0-13.1,13.1v76.39a13.14,13.14,0,0,0,13.1,13.1H447.17a13.14,13.14,0,0,0,13.1-13.1V424.51h74.21V1830.15h87.31V424.51H980.93L1081,532.19h-20.53a13.14,13.14,0,0,0-13.1,13.1v13.09a13.13,13.13,0,0,0,13.1,13.1h42.19a13.13,13.13,0,0,0,13.1-13.1V545.29A13.14,13.14,0,0,0,1102.7,532.19ZM557.08,220.93,1073.47,376.5H460.07a13.13,13.13,0,0,0-12.9-10.92H342.69Zm486.27,203.58,39.54,3.5v95l-91.53-98.45Z"/><path class="cls-4" d="M902.86,1829.92H518.75c18.5-13.65,84.89-61.26,145-87,24.92-10.65,48.76-17.54,67.67-16.69C791.42,1729,875.49,1804,902.86,1829.92Z"/><path class="cls-5" d="M780.76,1829.92H396.65c26.16-19.31,148.14-106.55,212.69-103.66,16.84.76,35.58,7.22,54.43,16.69C712.06,1767.21,761.07,1811.25,780.76,1829.92Z"/><path class="cls-2" d="M2639.09,612.49h0l1.47-2.17L2488.22,507.54,2123.29,617.47,2124,620h0v30.31l-2.62.23v76.26h-8.34a9,9,0,0,0-9,9v9a9,9,0,0,0,9,9H2142a9,9,0,0,0,9-9v-9a9,9,0,0,0-9-9h-14.09l68.68-73.86H2443v964.19h59.89V652.92h50.9v21a9,9,0,0,0,9,9h76.36a9,9,0,0,0,9-9v-52.4A9,9,0,0,0,2639.09,612.49Zm-151.74-99.22,147.06,99.22h-71.68a9,9,0,0,0-8.84,7.49H2133.13ZM2126.66,720.45V655.32l27.13-2.4h35.66Z"/><rect class="cls-3" x="1412.84" y="263.61" width="503.84" height="1567.84"/><rect class="cls-6" x="1412.84" y="479.94" width="364.68" height="229.69"/><rect class="cls-6" x="1412.84" y="900.53" width="364.68" height="229.69"/><rect class="cls-6" x="1412.84" y="1315.7" width="364.68" height="229.69"/><polygon class="cls-7" points="2544.78 1543.92 2476.78 1543.92 2476.78 1331.52 1916.68 1331.52 1916.68 263.61 1777.52 263.61 1777.52 1832.33 1916.68 1832.33 1916.68 1831.45 2476.78 1831.45 2476.78 1831.45 2544.78 1831.45 2544.78 1543.92"/><path class="cls-8" d="M2778.5,1835.16H215.18a2.53,2.53,0,0,1-2.52-2.52h0a2.54,2.54,0,0,1,2.52-2.52H2778.5a2.54,2.54,0,0,1,2.52,2.52h0A2.53,2.53,0,0,1,2778.5,1835.16Z"/><path class="cls-9" d="M2020.83,1830.16s1-21.7,6.82-33.34,52.38-3.64,52.38-3.64,10.73,19.42,9.28,36.88Z"/><path class="cls-9" d="M1895.87,1830.16s1-21.7,6.82-33.34,52.39-3.64,52.39-3.64,10.73,19.42,9.27,36.88Z"/><path class="cls-10" d="M2051,909.15c-5.81,4.22-58.46,31.7-58.46,31.7L1937,901.26s16.87-2.45,17.31-2.58c5-1.4,4.78-14.83,5.42-29.14.09-2.21.21-4.43.38-6.64l54.36-2,0,.67q.08,1,.15,2.16l.11,1.55c0,.54.08,1.07.12,1.63,1,12.57,3.08,30.33,7.1,32.4C2024.29,900.52,2039.76,900.34,2051,909.15Z"/><path class="cls-11" d="M2014.91,866.94c-4.48,9-14.47,24.59-29.28,24.08-14.14-.51-22.19-13.36-25.88-21.48.09-2.21.21-4.43.38-6.64l54.36-2,0,.67.15,2.16.11,1.55C2014.83,865.85,2014.87,866.38,2014.91,866.94Z"/><path class="cls-12" d="M1953.66,741.71s26.22-26.11,57.16.53C2010.82,742.24,1992.42,738.42,1953.66,741.71Z"/><path class="cls-13" d="M1943.93,837.75a224.87,224.87,0,0,1-13.43-37.21c-3.66-14.3-.31-68.54,54.23-64.86a73.58,73.58,0,0,1,31.27,9.21c12.3,7,30.49,22.85,15.1,71.12l-3.72,16.2Z"/><path class="cls-10" d="M2020.23,860.53c-14.08,13.46-31.57,31.4-69.27-1.77-7.38-6.49-6.88-16.47-7.31-30.8-.52-17-4.6-27.35-2.7-37.13,2.25-11.7,12.25-17,33-18.79,38.12-3.31,57.39,5.28,54.83,24.2C2023.08,838.46,2034.54,846.84,2020.23,860.53Z"/><path class="cls-13" d="M1989.16,771.35s22.6-.48,27.76,7.08,5.87,16,8.47,20.26a16.41,16.41,0,0,1,2.17,9l5-33.73L2002,767.92Z"/><path class="cls-14" d="M2121,957.4s-9.65,28.44-48.77,33.65c-1.06.14-2.15.26-3.26.37H1909.6l-.85-.26c-6.19-2-44.26-15-48.26-39.4,0,0,20-41.1,35.29-46.2a97.43,97.43,0,0,1,17.1-3.45c6.63-.85,13.6-1.41,19.45-1.79,8.06-.5,14-.63,14-.63s12.41,25.16,42.61,24.79,37.19-24.42,37.19-24.42,8.48.24,19.74,1.46c6.21.67,13.26,1.63,20.21,3,11.78,2.34,23.25,5.88,29.81,11.21C2113.32,929.93,2121,957.4,2121,957.4Z"/><path class="cls-12" d="M2083.06,1177.36c-1.7-9.42-4.22-23.76-6.2-36.37,0-.17,5.9-71.2,8.08-83.19s-12.64-77.32-12.64-77.32c-3.45-10-9.3-13.05-13.79-13.05l7.54-62.89c-7-1.39-14-2.35-20.21-3l-3.61,65.91-.06,1c-8.26.46-18.56,1-28.15,1.44s-18.48.75-24,.75c-11.12,0-36.63-1.27-53.58-2.2l-.07-.94-4.09-67.11c-5.85.38-12.82.94-19.45,1.79l7.21,65.32h0c-4.75,0-10.21,8.43-11,13.11l-.73,20.43c-3.59,10.29-11,33.15-12.26,49.19-1.63,21.2,7.23,95,7.29,95.49-.32,8.79-1,20-2.15,30.9-6.65,18-35,101.93-32.16,214.73,2.7,105.31,4.29,285.24,16.7,372.6,2,14.18,4.31,25.92,7,34.5a11.64,11.64,0,0,0,9.56,8.09c14.23,2,46.3,5.61,60.1.59,6.61-2.41,11.35-39.13,14.7-86.48,3.21-45.38,5.14-100.54,6.21-144.56,0,0,0,0,0,0,.86-35.09,1.19-63.11,1.19-73.48,0-23.46,5.55-92.3,7.38-132.79a.9.9,0,0,1,1.8,0h0c2.78,48.07,12.49,121,12.65,137.17.36,39.29-1.93,291.7,15.24,300.18,13.13,6.48,44.07,1.58,58.85-.42a13.61,13.61,0,0,0,11.25-9.71c18.47-63.51,20.1-284.2,23.21-405.65C2117.77,1280.08,2090.22,1197,2083.06,1177.36Z"/><path class="cls-10" d="M1938.34,1222.78c-5.45,4.37-23.27,2.54-30.18-3.27s-20.74-4-24-6.19c-.23-.15-64.57-76.4-71.55-108.49-7-32.38,37.5-121.49,50.11-145.78,9.33,19.71,40.41,30.35,46,32.11l.85.26h1.73c-10.49,28.35-41.85,79.39-53.93,98.62a16.68,16.68,0,0,0-1,15.89c15.52,33.28,30.7,61.35,37.35,80.79,1.32,2.16,4.15,6,7.58,5.5,4.74-.73,20-4,27.65,7.27S1943.8,1218.42,1938.34,1222.78Z"/><path class="cls-15" d="M2036.29,742.47a80.27,80.27,0,0,0-11.7-12.07c-1.19-1-2.47-2.07-3.83-3.09-13.82-10.52-35.93-20.78-62.58-9.66A59.48,59.48,0,0,0,1940,729.49c-1.18,1.12-2.3,2.26-3.35,3.45-23.11,25.64-21.15,65.85-21.15,65.85l133.35-1.42C2049.24,760.14,2036.29,742.47,2036.29,742.47Z"/><path class="cls-4" d="M2011.35,797.77c-.38-5.61-2.93-51.62,13.24-67.36a28.75,28.75,0,0,0-2.27-1.89c-17.24,18.09-18.34,63.4-18.28,69.32l-42.62.46c-1.27-32.66-19.29-65.18-21.46-68.81a32.37,32.37,0,0,0-2.46,2.52c3.13,5.51,14.9,37,16,66.37l-38.07.41s35.51,9.18,62.26,8.85,71.09-10.27,71.09-10.27Z"/><path class="cls-13" d="M1943.39,974.32c-13.64,26.19-52.39,31.1-52.39,31.1,12.56-30.56-12.73-40.19-28.37-71.48s12-52,12-52c-17.1,3.28-20.37,26.2-20.37,26.2-1.45-15.28,11.28-41.1,51.66-46.2,29.57-3.73,36.71-13.7,38.41-18.77.66,6.58,2.26,11.73,6.68,15.62,3.12,2.75,6.11,5.14,9,7.22-.07,1.19-.12,2.38-.18,3.56-.17,4-.28,8-.47,11.62a19.68,19.68,0,0,0-4.23,17.21,18.7,18.7,0,0,0,1.4,4.28,36.07,36.07,0,0,1,7,17.45C1965.37,937.41,1953.62,954.68,1943.39,974.32Z"/><path class="cls-9" d="M2082.75,1175.65l-5.89-34.65a270.41,270.41,0,0,1-79.78,16.56,19.27,19.27,0,0,0-14.2-9.92l-21.16-3.06a19.29,19.29,0,0,0-19.89,10.24c-20.32-3.14-34-7.75-38.39-9.34v.19l-2.1,30.42v.08c12.22,3.25,23.94,5.78,35.15,7.7l-.63,4.24a19.3,19.3,0,0,0,16.23,21.89l23.45,3.52a19.3,19.3,0,0,0,22.11-17.88l.41-6.52C2042.75,1188.89,2072.46,1179.49,2082.75,1175.65Z"/><path class="cls-10" d="M2168.5,1104.83c-7,32.09-71.32,108.34-71.55,108.49a7.12,7.12,0,0,1-2.52.83l-.12,0c-5.32.92-15.68.54-21.37,5.34-6.91,5.81-24.74,7.64-30.2,3.27s1.83-12,9.46-23.29,22.92-8,27.65-7.27c2.81.43,5.25-2.1,6.74-4.22a.94.94,0,0,0,.09-.12c.28-.41.55-.81.75-1.16,6.51-19,21.16-46.26,36.31-78.57a21,21,0,0,0-1.2-20.09c-10.12-16.17-30.66-49.75-43.87-76.69-1.54-7.79-3.08-15.12-4.27-20.66,29-4.67,41-22.33,44.93-29.86C2133.05,987.47,2175.37,1073.2,2168.5,1104.83Z"/><g id="P297LW"><path class="cls-16" d="M2604.06,1243.15c-9.74,2.24-53.72,2.78-84.6-4.16a94.32,94.32,0,0,1-17.19-5.36c-5.82-2.57-10.2-5.67-12.44-9.4-3.49-5.81-9.88-25.72-17.39-51.82-20.68-71.91-49.78-190.74-49.78-190.74s58.44,11.93,70.8,22.11,23.29,171.7,34.92,176.07c1.72.64,4.68,2,8.46,3.86.19.09.37.19.56.27,2.26,1.12,4.8,2.41,7.55,3.82,24.13,12.4,64.06,34.74,68.2,39.71C2618.61,1234.05,2618.25,1239.87,2604.06,1243.15Z"/><path class="cls-16" d="M2491.92,1073.63a46.26,46.26,0,0,0-.77-8.26c-7.52-41.35-67.32-83.7-68.49-83.7v.86c0,6.32-10,18-25.31,19-18.21,1.19-40.67-9.19-40.67-19.68-.11,0-10.23,1.37-13.66,1.75-14.59,1.66-43.71,9.54-56.18,19-11.86,9,4.9,65.46,15.28,105.47,4.39,16.92,7.64,30.89,7.1,37.08-.26,3-3,44.09-5.4,81.24-2,30.65-3.82,58.62-3.87,60.37-.14,3.48,17.17,15.67,46.23,24.89a231.05,231.05,0,0,0,23,6,245.22,245.22,0,0,0,50.15,5c6,0,11.69-.32,17.06-.86C2477.94,1317.63,2492.16,1270.32,2491.92,1073.63Z"/><path class="cls-10" d="M2356.68,981.36c-.35-16.07-.09-35.24,2.08-51.44l64.11,10.47s.07,19.57-.21,41.28c0,0,1.74,20.14-23.06,23.08S2356,996.9,2356.68,981.36Z"/><path class="cls-9" d="M2410.31,1830.17c-8.06-5-3.32-41.73-3.32-41.73s37.75-30,42.84-6.89,35.63,33.54,53,36.43c12,2,16.44,8.2,17.58,12.14Z"/><path class="cls-17" d="M2351.59,1198c0,61.48-29.8,44.91-47.78,28.31,2.42-37.15,4.12-168.73,4.12-168.73S2351.59,1110,2351.59,1198Z"/><path class="cls-17" d="M2545,1187.8c-1.19,8.63-14.81,33.73-25.49,51.19a94.32,94.32,0,0,1-17.19-5.36c-5.82-2.57-10.2-5.67-12.44-9.4-3.49-5.81-9.88-25.72-17.39-51.82,5.56-32.13,10.84-63.86,10.84-63.86l1.64-21.28c0,1.64,24.91,95.13,36.2,97.31,6.8,1.33,11.62-.28,15.72-.87.19.09.37.19.56.27C2539.66,1185.1,2542.2,1186.39,2545,1187.8Z"/><path class="cls-9" d="M2294.63,1830.17c-8.06-5-3.33-41.73-3.33-41.73s37.76-30,42.85-6.89,35.63,33.54,53,36.43c12,2,16.37,8.2,17.51,12.14Z"/><path class="cls-9" d="M2350.58,911.43S2307.78,844,2390,839.49c0,0,30.82,3.63,37.8-3.34,0,0,23.91,36.33,1.58,75.28S2350.58,911.43,2350.58,911.43Z"/><path class="cls-10" d="M2421,946.64c-6.23,4.9-24.5,9.77-29.78,10.34,0,0-27.08-6-32-9-7.63-4.62-7.14-14-7.53-27-.46-15.4-2-27.49-.3-36.36,2-10.62,8.78-16.66,27.62-18.3,34.6-3,49,5.66,49.61,17.26.16,3.11.3,6.08.4,8.9C2430.38,928.66,2427.52,941.48,2421,946.64Z"/><path class="cls-9" d="M2429.31,904.34c-.34,21-6,33.36-10.09,34.93a86.87,86.87,0,0,1-16,4.28c-1.95.23-3.82.17-3.8-.94.07-3.3,4.48-7.38,1.2-10.3-3.44-3.07-21.91-4.11-23.4,2.59-.73,3.27,5.23,9,1.15,9.17-1.24-.21-2.46-.45-3.62-.76a53.35,53.35,0,0,1-14.23-6.28c-7.63-4.62-7.13-11.7-8.81-24.61-1.1-8.34-1.1-3.82,0,8.57,1.14,13-1.1,21.28,7.52,27,4.79,3.17,32.41,15.58,32.41,15.58-.41-6.57,23.14-12,29.37-16.91C2426.75,942.1,2429.65,931.58,2429.31,904.34Z"/><path class="cls-12" d="M2299.94,1286.72c-.13,3.48,17.18,15.67,46.24,24.88,2.34.75,4.77,1.47,7.26,2.16a.11.11,0,0,1,.06.07c2.71,31.81,10.05,76.75,16.67,120.11h0c1.71,11.24,3.37,22.38,4.9,33.15,4,28.5,7.06,54.48,7.39,73.17v.2c.14,8.58-7.1,30-7.64,34.92-.34,3-.61,6.22-.81,9.57a387.78,387.78,0,0,0,.61,46.11c4.75,73.73,24.23,168.07,31.18,172.08,13.82,8,39,0,51.74-1.87,5.29-.79,9.53-5.3,9.25-10.63-6.24-122.36,11.69-292.78,25.09-397.53q.52-4.09,1-8c1.6-12.35,2.66-23.89,3.33-34.29.61-9.12.91-17.4,1-24.58,0-2.24.05-4.38.06-6.4,0-6.56-5.18-49.49-5.42-246.18h0a8.3,8.3,0,0,0-8.27-8.26H2363.38a20.85,20.85,0,0,0-20.84,21.13c.19,15-.35,36-3.61,56-4.44,27.31-13.94,52.82-33.56,59a.07.07,0,0,0,0,0c-.09.2-.63,1.39-1.49,3.38v0q-.27,7.41-.62,15.09c0,1-.08,2.07-.14,3.1,0,.61,0,1.21-.09,1.83,0,1-.09,2.08-.15,3.13-.08,1.72-.16,3.46-.26,5.21-.08,1.38-.15,2.75-.23,4.14-.14,2.66-.31,5.36-.48,8.08,0,.87-.1,1.73-.16,2.61-.23,3.52-.47,7.09-.75,10.68-.07,1.1-.16,2.2-.25,3.32,0,.53-.07,1.07-.12,1.6-.11,1.41-.22,2.82-.34,4.23s-.25,3-.38,4.52C2299.37,1277.92,2300.08,1282.85,2299.94,1286.72Z"/><path class="cls-9" d="M2374.62,1631.07c4.75,73.73,24.23,168.07,31.18,172.08,13.82,8,39,0,51.74-1.87,5.29-.79,9.53-5.3,9.25-10.63-6.24-122.36,11.69-292.78,25.09-397.53q.52-4.09,1-8c1.6-12.35,2.66-23.89,3.33-34.29-6.37-41.53-42.34-43.76-75,42.16C2425.32,1421.46,2373.54,1614.18,2374.62,1631.07Z"/><path class="cls-12" d="M2298.59,1536.8c-1,8.53-11,28.79-12.16,33.62-16.49,66.32-7.38,223.57.79,229.86,12.65,9.73,38.63,5.11,51.54,4.93,5.36-.07,10.14-4,10.57-9.31,10.14-125.3,52.16-297.39,79.18-398.62,13.61-51,15.53-88.49,15.53-88.49s-126.28-77.37-139.94-35.1C2292,1311.09,2306.21,1471.36,2298.59,1536.8Z"/><path class="cls-15" d="M2427.22,820.63c-.88-1-1.8-1.93-2.77-2.85a49,49,0,0,0-15-9.78c-22-9.19-40.28-.71-51.69,8-1.13.85-2.19,1.71-3.17,2.56a66.77,66.77,0,0,0-9.67,10s-10.69,14.59-10.33,45.34L2444.69,875S2446.31,841.81,2427.22,820.63Z"/><path class="cls-4" d="M2365.45,874.16l6.05.07c.12-1.75-.17-41.73-15.08-57.25a20.73,20.73,0,0,0-1.88,1.55C2368.7,832.19,2365.48,873.75,2365.45,874.16Z"/><path class="cls-4" d="M2413.31,874.69c1.26-24.48,10.64-50.2,13.17-54.77a24,24,0,0,0-2-2.14c-1.76,3-16.13,29.65-17.65,56.84l-72.26-.78s36.62,8.22,58.71,8.49,51.44-7.31,51.44-7.31Z"/><path class="cls-12" d="M2338.68,984.18s37.22,43.36,39.41,81.19l-19,1s-4.78-42.14-32.79-79.61c0,0,4.38-1.06,5.84-1.35C2334.13,985,2338.68,984.18,2338.68,984.18Z"/><path class="cls-12" d="M2431.48,983.58c26.66,40.35,29.52,82.61,29.52,82.61l19.14-.33c-1.57-29.74-20.26-62.45-30.57-77.95C2449.57,987.91,2436.33,984.56,2431.48,983.58Z"/><path class="cls-15" d="M2389.92,1399.68h-15.37c-7.14-3.24-45.63-19.91-82.62-20.11-26.69-.15-57.1,19.79-58.93,20-4.64.55,15.46.73,15.46.73s30.12-13.33,43.65-13.64c12.9-.3,41.54,9.08,53,13H2259a13.14,13.14,0,0,0-13.1,13.1V1511a13.13,13.13,0,0,0,13.1,13.09h131A13.13,13.13,0,0,0,2403,1511v-98.22A13.14,13.14,0,0,0,2389.92,1399.68Z"/><rect class="cls-4" x="2203.3" y="1399.68" width="157.15" height="124.41" rx="13.1"/><path class="cls-16" d="M2308.9,1216.93c.93,44.4-4.6,132.81-4.6,132.81h-26.19c-12.37-62.21-16.73-102.23-16.73-124.06q0-6.45,0-12c.17-18.64.67-29.47.67-29.47-4.91-112.94,17.65-173.33,24.73-181.65s39.5-15.79,39.5-15.79,10.71,31.2,15.08,56.3-34.34,130.57-32.74,166.62C2308.76,1211.93,2308.84,1214.36,2308.9,1216.93Z"/><path class="cls-18" d="M2648.84,1247.15h-21.18a3.84,3.84,0,0,0-3.82,3.84v576.8a3.84,3.84,0,0,0,3.82,3.83h21.18a3.83,3.83,0,0,0,3.82-3.83V1251A3.84,3.84,0,0,0,2648.84,1247.15Z"/><path class="cls-12" d="M2648.84,1247.15h-21.18a3.84,3.84,0,0,0-3.82,3.84v17.87h28.82V1251A3.84,3.84,0,0,0,2648.84,1247.15Z"/><path class="cls-12" d="M2623.84,1827.79a3.84,3.84,0,0,0,3.82,3.83h21.18a3.83,3.83,0,0,0,3.82-3.83v-15.42h-28.82Z"/><path class="cls-4" d="M2638.43,1285a2.19,2.19,0,0,0-2.18,2.18v507.71a2.18,2.18,0,0,0,4.36,0V1287.13A2.19,2.19,0,0,0,2638.43,1285Z"/><path class="cls-10" d="M2304.3,1349.74s5.53-88.41,4.6-132.81c-21-6.75-37.84-5.27-47.47-3.25q0,5.55,0,12c0,21.83,4.36,61.85,16.73,124.06-5.46,22.91-5.09,47.65,4.36,52s40.75-12,40.38-19.28S2304.3,1349.74,2304.3,1349.74Z"/><path class="cls-10" d="M2662.67,1247.51c-2.55-9.36-4.45-14.55-10.89-19.09-9.37-6.61-20.49-4.82-28.78-3.37-6.33,1.11-13-1-15.74-2.08-14.68-9.78-51.52-29.94-69.86-39-12.52,7.26-27.9,21.62-35.13,49.65,28.23,12.45,90,12.23,101.79,9.52,0,0,10.89,7.91,19.18,8.64,3.13.27,7.09-.64,10.79-1.88,5.82-2,12.07,0,16.25,5.17,4,5,9.29,7.71,11.47,7.71C2665.12,1262.79,2664.28,1253.41,2662.67,1247.51Z"/></g><rect class="cls-15" x="295.09" y="1361.13" width="157.15" height="124.41" rx="13.1"/><rect class="cls-4" x="337.65" y="1361.13" width="157.15" height="124.41" rx="13.1"/><path class="cls-15" d="M322.37,1361.67s31.1-22.92,35.74-22.37,12,2.18,12,2.18l-27.83,21Z"/><path class="cls-14" d="M567.87,999.66c-12.48-9.43-41.59-17.31-56.19-19-3.42-.38-13.67-.43-13.78-.43,0,10.49-22.34,19.55-40.54,18.36-15.35-1-25.31-12.67-25.31-19v0c-1.18,0-61,41.5-68.49,82.85a45.37,45.37,0,0,0-.78,8.26c-.24,196.69-12.16,226.86-8.39,226.79,0,0,22.37,17.21,63.89,21.28,5.36.54,11.05.84,17.05.87a245.19,245.19,0,0,0,50.15-5,225,225,0,0,0,23-6c29.06-9.21,46.37-21.4,46.24-24.88-.14-3.88.57-8.8.09-14.32-1.82-20.82-2.81-39-3.57-57.34,31.54,2.77,49.73-.35,49.73-.35C626.84,1156.23,584.74,1012.4,567.87,999.66Zm-7.37,160.09c-1.92.52-4,1-6.23,1.48-1.54.34-3.14.65-4.8,1,0-.76-.06-1.52-.09-2.26-.43-10.3-.91-20.11-1.58-29.45-.57-7.81-1.27-15.29-2.19-22.42C556.49,1136.75,564.08,1158.79,560.5,1159.75Z"/><path class="cls-10" d="M432.05,979.62s-46.2,7-66.09,23.58-21.9,122.11-28.53,152c-1.3,5.86-2.47,15.31-3.48,26.84-3.56,40.49.7,96.64,4.23,117.39a44.7,44.7,0,0,1-2.71,19.59c-5.1,12.74-6.19,16.37,2.91,23.65s18.91,17.46,25.82,14.55c5.34-2.24,4.39-37.6,3.68-53.66,8-34.3,20.9-98.68,33.07-161.07C417.17,1059.26,432.05,979.62,432.05,979.62Z"/><path class="cls-14" d="M432.05,979.63s-8.58,45.89-19.81,104.39c-3.56,18.56-7.39,38.39-11.29,58.43-15.9,31.15-29.55,52.34-33.76,48.35-8.6-8.12-23.69-9.12-33.24-8.82,1-11.52,2.18-21,3.48-26.83.52-2.36,1-5.19,1.5-8.4,5.56-37.55,8.72-128.29,27-143.55,9.63-8,25.44-13.8,39.18-17.64h0c7-2,13.5-3.4,18.34-4.38C428.73,980.13,432.05,979.63,432.05,979.63Z"/><path class="cls-19" d="M367.19,1190.8c-8.59-8.11-23.69-9.12-33.24-8.81,1-11.53,2.18-21,3.48-26.84.52-2.36,1-5.19,1.5-8.41l47.66-115.06S371.41,1194.79,367.19,1190.8Z"/><path class="cls-10" d="M498,978.45c.35-16.06.08-35.24-2.09-51.44l-64.1,10.48s0,19.56.28,41.27h-.06s-1.75,20.13,23.05,23.08S498.69,994,498,978.45Z"/><path class="cls-9" d="M444.37,1830.12c8.06-5,3.34-42,3.34-42s-37.75-30-42.84-6.89-35.63,33.54-53,36.43c-12,2-15.7,8.66-16.84,12.6Z"/><path class="cls-19" d="M554.28,1161.28s-12,16.23-14.46,16.23-32.74-11.73-24.05-38,29.84-31.48,29.84-31.48c.92,7.13,1.62,14.61,2.19,22.42.67,9.34,1.15,19.15,1.58,29.45,0,.74,0,1.5.09,2.26,1.66-.31,3.26-.62,4.8-1Z"/><path class="cls-9" d="M560.05,1830.12c8.06-5,3.35-42,3.35-42s-37.76-30-42.85-6.89-35.63,33.54-53,36.43c-12,2-15.7,8.66-16.84,12.6Z"/><path class="cls-13" d="M504.12,908.53s42.8-67.47-39.37-71.94c0,0-30.82,3.63-37.8-3.35,0,0-23.91,36.33-1.58,75.29S504.12,908.53,504.12,908.53Z"/><path class="cls-10" d="M433.73,943.74c6.23,4.9,24.49,9.76,29.77,10.33,0,0,27.09-6,32-9,7.62-4.62,7.13-14,7.52-27,.47-15.39,2-27.48.31-36.36-2-10.61-8.78-16.65-27.62-18.29-34.6-3-49,5.66-49.61,17.26-.16,3.11-.3,6.08-.4,8.89C424.32,925.75,427.18,938.58,433.73,943.74Z"/><path class="cls-13" d="M425.39,901.44c.34,20.95,6,33.36,10.08,34.92a86.4,86.4,0,0,0,16,4.29c2,.23,3.82.16,3.79-.94-.06-3.31-4.48-7.38-1.19-10.31s21.91-4.1,23.4,2.6c.73,3.26-5.23,9-1.15,9.16,1.24-.21,2.46-.45,3.62-.75a54,54,0,0,0,14.23-6.28c7.63-4.62,7.13-11.71,8.81-24.61,1.1-8.35,1.1-3.82,0,8.56-1.14,13,1.1,21.28-7.52,27-4.79,3.18-32.41,15.58-32.41,15.58.4-6.57-23.14-12-29.37-16.9C428,939.19,425.05,928.68,425.39,901.44Z"/><path class="cls-12" d="M554.76,1283.82c.13,3.48-17.18,15.67-46.24,24.88-2.34.75-4.77,1.46-7.26,2.16a.09.09,0,0,0-.06.07c-2.71,31.81-10.05,76.74-16.67,120.11h0c-1.71,11.24-3.37,22.37-4.9,33.14-4,28.51-7.06,54.48-7.39,73.18v.19c-.14,8.58,7.1,30,7.64,34.93.34,3,.61,6.22.81,9.57a387.8,387.8,0,0,1-.61,46.11c-4.75,73.73-24.23,168.06-31.18,172.08-13.82,8-39,0-51.74-1.88-5.29-.78-9.53-5.29-9.26-10.63,6.25-122.36-11.68-292.77-25.09-397.53-.34-2.73-.69-5.4-1-8-1.61-12.35-2.66-23.89-3.33-34.29-.61-9.12-.91-17.41-1-24.59q0-3.36-.06-6.39c0-6.56,5.18-49.5,5.42-246.19h0a8.3,8.3,0,0,1,8.27-8.26H491.32a20.84,20.84,0,0,1,20.83,21.14c-.18,15,.36,36,3.62,55.94,4.43,27.31,13.94,52.83,33.56,59,0,0,0,0,0,0,.09.2.63,1.39,1.49,3.38v0q.28,7.41.63,15.09c0,1,.08,2.06.14,3.1,0,.61.05,1.21.09,1.82,0,1,.09,2.09.15,3.13.07,1.73.16,3.46.26,5.22.08,1.38.15,2.75.23,4.14q.21,4,.48,8.07c0,.88.1,1.74.16,2.62.23,3.52.47,7.08.74,10.67.08,1.11.17,2.21.26,3.32,0,.54.07,1.07.12,1.61.11,1.4.21,2.81.33,4.23s.26,3,.39,4.52C555.33,1275,554.62,1279.94,554.76,1283.82Z"/><path class="cls-9" d="M480.08,1628.17c-4.75,73.73-24.23,168.06-31.18,172.08-13.82,8-39,0-51.74-1.88-5.29-.78-9.53-5.29-9.26-10.63,6.25-122.36-11.68-292.77-25.09-397.53-.34-2.73-.69-5.4-1-8-1.61-12.35-2.66-23.89-3.33-34.29,6.37-41.54,42.34-43.76,75,42.16C447.39,1423.33,481.16,1611.27,480.08,1628.17Z"/><path class="cls-12" d="M556.11,1533.9c1,8.52,11,28.79,12.16,33.62,16.49,66.32,7.38,223.57-.8,229.86-12.64,9.73-38.63,5.1-51.54,4.93-5.35-.08-10.13-4-10.56-9.32-10.14-125.29-52.16-297.38-79.18-398.61-13.61-51-15.54-88.49-15.54-88.49s126.29-77.37,140-35.1C562.69,1308.19,548.49,1468.45,556.11,1533.9Z"/><path class="cls-15" d="M509.83,825.6a66.51,66.51,0,0,0-9.67-10c-1-.85-2-1.7-3.17-2.55-11.41-8.69-29.67-17.16-51.69-8a49.2,49.2,0,0,0-15.05,9.78c-1,.92-1.9,1.87-2.77,2.85C408.39,838.9,410,872.12,410,872.12l110.15-1.18C520.52,840.19,509.83,825.6,509.83,825.6Z"/><path class="cls-4" d="M489.25,871.26c0-.41-3.25-42,10.91-55.64a22.21,22.21,0,0,0-1.88-1.55c-14.91,15.52-15.21,55.5-15.08,57.26Z"/><path class="cls-4" d="M448,871.71c-1-27-15.93-53.84-17.72-56.84a24.94,24.94,0,0,0-2,2.09c2.59,4.54,12.31,30.55,13.24,54.82l-31.45.34s29.34,7.58,51.44,7.31,58.71-8.49,58.71-8.49Z"/><path class="cls-12" d="M516,981.27s-37.22,43.36-39.4,81.19h18.92s4.82-41.12,32.83-78.59Z"/><path class="cls-12" d="M423.49,981.18c-26.66,40.35-29.82,81.28-29.82,81.28H374.75c1.58-29.74,20.07-61.41,30.39-76.9h0C412.16,983.6,418.65,982.16,423.49,981.18Z"/><path class="cls-15" d="M615.63,1215.53a395.4,395.4,0,0,0-6.44-51.93,165.54,165.54,0,0,1-2.09,27.51c4.68,37.3,2.87,65.81-5.44,82a55.61,55.61,0,0,1-20.91,22.83,66,66,0,0,0,11.56-15.26c6.39-11.45,12.27-32.76,10.09-72.07-.44,1.12-.9,2.2-1.39,3.25,0,0-1.62.28-4.74.6,1.28,28.74-1.79,50.75-9.13,63.92A54.32,54.32,0,0,1,565,1298.5a64.94,64.94,0,0,0,7.87-9.5c7.58-11.14,15.49-33,15.83-76q-2.84.16-6.29.26c-.35,33-5.21,57.47-14.36,70.87-.42.62-.86,1.24-1.31,1.84,6.94-11.91,13.58-33.5,13.92-72.68-2,0-4.07,0-6.3,0-.33,32.92-5.21,57.42-14.35,70.81a51.87,51.87,0,0,1-21.16,18.33c-2.52-.43-5.1-1-7.69-1.69-.35-.08-.7-.17-1-.28l-.11,0-1-.29q-4.74-1.38-9.2-3.15c-36.39-14.45-57.27-47-59.3-73.74-1.44-19,.1-47.29,3.94-78.06,7.56-60.64,24-130.94,44.06-158.88.34-.47.66-.93,1-1.37h0c.42-.55.84-1.09,1.27-1.59.74-.89,1.47-1.72,2.22-2.48l0,0a24.61,24.61,0,0,1,4.67-3.82,12.12,12.12,0,0,1,1.38,1,26.6,26.6,0,0,1,4.64,4.78l0,.05c2.09.45,4.26,1,6.48,1.53,1,.28,2.09.55,3.15.86a.73.73,0,0,1,.2,0c.25,0,.5.13.74.2,1.3.36,2.6.74,3.91,1.13l2.23.69,2.62.85,2.84,1c1,.35,2,.71,3,1.08l-.06-.09c-11.79-18.58-20.17-22.91-25.61-22.65a15,15,0,0,0-2.55.34,10.73,10.73,0,0,0-2.73-.37,16.35,16.35,0,0,0-5.48,1c-5.6.54-11.49,4.08-17.59,10.59-.42.43-.83.89-1.25,1.36a108.23,108.23,0,0,0-10.16,13.8l-.06.09c-32.25,51-62.32,164.2-64.11,217.2-1.41,41.94,30.88,79.44,63.51,94.8a98.37,98.37,0,0,0,9.49,3.89q2.65.93,5.26,1.66l.11,0a72.55,72.55,0,0,0,19.63,2.84c1.35,0,2.68,0,4-.13,1.36.09,2.71.13,4.05.13a57.84,57.84,0,0,0,17-2.48c.85,0,1.7-.1,2.54-.16s1.44-.13,2.14-.22c1.38-.16,2.75-.37,4.1-.62a68,68,0,0,0,11.52-.89,58.12,58.12,0,0,0,30.63-14.88,66.1,66.1,0,0,0,13.68-18.3C612.41,1266.53,617.23,1247.91,615.63,1215.53Zm-190.06-3.76c1.58-46.91,27.23-146.54,55.59-200.33-1,2.38-2,4.84-3,7.37-26.8,56.76-49.31,147-50.84,192.65-.65,19.08,5.68,37.23,15.85,52.8C431,1247.07,425,1227.84,425.57,1211.77Zm67.53,87.36c-40.36-19-60.48-58.33-59.49-87.36.86-25.77,9-67.47,20.86-108.73-9.25,44.6-14.41,89.84-13.14,117.63,1.6,35.19,26.6,64.45,54.52,79.69C494.93,1300,494,1299.57,493.1,1299.13Zm-45.53-78.88c-1.84-40.24,10.88-121.26,29.69-179.38,2.11-6.5,4.29-12.72,6.54-18.57.84-1.78,1.68-3.51,2.52-5.22-14.48,39.66-25.36,96.34-30.08,143.94-2.42,24.61-3.19,46.79-2,63,2.2,29,20.3,53.3,42.54,68.73C465.8,1275.56,448.7,1245.06,447.57,1220.25Z"/><path class="cls-10" d="M554.28,1161.28c-1,.15-20.37,3.68-21.42,3.83-32.21,4.72-75.55,6.81-80.07,7-.42-.39-15.79-14.71-21.79-14.71s-23.6,6.38-25.39,11.29-2.5,13.76,2.51,15.72,25.74,6.87,31.11,7.37a14.91,14.91,0,0,0,2.57,0A544.25,544.25,0,0,0,539,1211.28a232.54,232.54,0,0,0,27.17,1.83C565.81,1190.87,558.32,1170.32,554.28,1161.28Z"/><path class="cls-3" d="M1258,702.22v-8.46h-18.52V637.91h-15.33v55.85h-38.83V637.91H1170v55.85h-42.22V637.91h-15.33v55.85h-38.83V637.91h-15.33v55.85H1038v8.46h20.3v27.19H1038v8.46h20.3v27.19H1038v8.47h20.3v27.19H1038v8.46h20.3v27.19H1038v8.47h20.3V872H1038v8.46h20.3v22H1038V911h20.3v27.2H1038v8.46h20.3V973.8H1038v8.46h20.3v27.19H1038v8.47h20.3v27.19H1038v8.46h20.3v27.19H1038v8.46h20.3v26H1038v8.47h20.3v27.19H1038v8.46h20.3v27.19H1038V1195h20.3v27.19H1038v8.46h20.3v27.19H1038v8.46h20.3v27.2H1038v8.46h20.3v22H1038v8.46h20.3v27.19H1038V1368h20.3v27.19H1038v8.46h20.3v27.19H1038v8.46h20.3v27.2H1038V1475h20.3v27.19H1038v8.46h20.3v24.26H1038v8.46h20.3v27.19H1038V1579h20.3v27.19H1038v8.46h20.3v27.19H1038v8.47h20.3v27.19H1038V1686h20.3v27.19H1038v8.46h20.3v22H1038v8.47h20.3v27.19H1038v8.46h20.3v27.19H1038v8.47h220v-8.47h-18.52v-27.19H1258v-8.46h-18.52V1752.1H1258v-8.47h-18.52v-22H1258v-8.46h-18.52V1686H1258v-8.46h-18.52v-27.19H1258v-8.47h-18.52v-27.19H1258v-8.46h-18.52V1579H1258v-8.47h-18.52v-27.19H1258v-8.46h-18.52v-24.26H1258v-8.46h-18.52V1475H1258v-8.46h-18.52v-27.2H1258v-8.46h-18.52v-27.19H1258v-8.46h-18.52V1368H1258v-8.47h-18.52v-27.19H1258v-8.46h-18.52v-22H1258v-8.46h-18.52v-27.2H1258v-8.46h-18.52V1230.6H1258v-8.46h-18.52V1195H1258v-8.47h-18.52v-27.19H1258v-8.46h-18.52v-27.19H1258v-8.47h-18.52v-26H1258v-8.46h-18.52v-27.19H1258v-8.46h-18.52v-27.19H1258v-8.47h-18.52V982.26H1258V973.8h-18.52V946.61H1258v-8.46h-18.52V911H1258v-8.46h-18.52v-22H1258V872h-18.52V844.84H1258v-8.47h-18.52V809.18H1258v-8.46h-18.52V773.53H1258v-8.47h-18.52V737.87H1258v-8.46h-18.52V702.22Zm-88,0v27.19h-42.22V702.22Zm-42.22,1077.07V1752.1H1170v27.19Zm42.22,8.46v27.19h-42.22v-27.19Zm-42.22-44.12v-22H1170v22Zm0-30.46V1686H1170v27.19Zm0-35.65v-27.19H1170v27.19Zm0-35.66v-27.19H1170v27.19Zm0-35.65V1579H1170v27.19Zm0-35.66v-27.19H1170v27.19Zm0-35.65v-24.26H1170v24.26Zm0-32.72V1475H1170v27.19Zm0-35.65v-27.2H1170v27.2Zm0-35.66v-27.19H1170v27.19Zm0-35.65V1368H1170v27.19Zm0-35.66v-27.19H1170v27.19Zm0-35.65v-22H1170v22Zm0-30.46v-27.2H1170v27.2Zm0-35.66V1230.6H1170v27.19Zm0-35.65V1195H1170v27.19Zm0-35.66v-27.19H1170v27.19Zm0-35.65v-27.19H1170v27.19Zm0-35.66v-26H1170v26Zm0-34.41v-27.19H1170v27.19Zm0-35.65v-27.19H1170v27.19Zm0-35.66V982.26H1170v27.19Zm0-35.65V946.61H1170V973.8Zm0-35.65V911H1170v27.2Zm0-35.66v-22H1170v22Zm0-30.46V844.84H1170V872Zm0-35.66V809.18H1170v27.19Zm0-35.65V773.53H1170v27.19Zm0-35.66V737.87H1170v27.19Zm-54.16-62.84h38.83v27.19h-38.83Zm0,35.65h38.83v27.19h-38.83Zm0,35.66h38.83v27.19h-38.83Zm0,35.65h38.83v27.19h-38.83Zm0,35.66h38.83V872h-38.83Zm0,35.65h38.83v22h-38.83Zm0,30.46h38.83v27.2h-38.83Zm0,35.66h38.83V973.8h-38.83Zm0,35.65h38.83v27.19h-38.83Zm0,35.66h38.83v27.19h-38.83Zm0,35.65h38.83v27.19h-38.83Zm0,35.65h38.83v26h-38.83Zm0,34.42h38.83v27.19h-38.83Zm0,35.65h38.83v27.19h-38.83Zm0,35.66h38.83v27.19h-38.83Zm0,35.65h38.83v27.19h-38.83Zm0,35.65h38.83v27.2h-38.83Zm0,35.66h38.83v22h-38.83Zm0,30.46h38.83v27.19h-38.83Zm0,35.66h38.83v27.19h-38.83Zm0,35.65h38.83v27.19h-38.83Zm0,35.65h38.83v27.2h-38.83Zm0,35.66h38.83v27.19h-38.83Zm0,35.65h38.83v24.26h-38.83Zm0,32.72h38.83v27.19h-38.83Zm0,35.66h38.83v27.19h-38.83Zm0,35.65h38.83v27.19h-38.83Zm0,35.66h38.83v27.19h-38.83Zm0,35.65h38.83v27.19h-38.83Zm0,35.65h38.83v22h-38.83Zm0,30.47h38.83v27.19h-38.83Zm0,35.65h38.83v27.19h-38.83Zm150.53,27.19h-38.83v-27.19h38.83Zm0-35.65h-38.83V1752.1h38.83Zm0-35.66h-38.83v-22h38.83Zm0-30.46h-38.83V1686h38.83Zm0-35.65h-38.83v-27.19h38.83Zm0-35.66h-38.83v-27.19h38.83Zm0-35.65h-38.83V1579h38.83Zm0-35.66h-38.83v-27.19h38.83Zm0-35.65h-38.83v-24.26h38.83Zm0-32.72h-38.83V1475h38.83Zm0-35.65h-38.83v-27.2h38.83Zm0-35.66h-38.83v-27.19h38.83Zm0-35.65h-38.83V1368h38.83Zm0-35.66h-38.83v-27.19h38.83Zm0-35.65h-38.83v-22h38.83Zm0-30.46h-38.83v-27.2h38.83Zm0-35.66h-38.83V1230.6h38.83Zm0-35.65h-38.83V1195h38.83Zm0-35.66h-38.83v-27.19h38.83Zm0-35.65h-38.83v-27.19h38.83Zm0-35.66h-38.83v-26h38.83Zm0-34.41h-38.83v-27.19h38.83Zm0-35.65h-38.83v-27.19h38.83Zm0-35.66h-38.83V982.26h38.83Zm0-35.65h-38.83V946.61h38.83Zm0-35.65h-38.83V911h38.83Zm0-35.66h-38.83v-22h38.83Zm0-30.46h-38.83V844.84h38.83Zm0-35.66h-38.83V809.18h38.83Zm0-35.65h-38.83V773.53h38.83Zm0-35.66h-38.83V737.87h38.83Zm0-35.65h-38.83V702.22h38.83Z"/><rect class="cls-3" x="1438.92" y="185.49" width="5.42" height="96.56"/><rect class="cls-3" x="1739.45" y="185.49" width="5.42" height="96.56"/><rect class="cls-3" x="1476.9" y="185.49" width="5.42" height="96.56"/><rect class="cls-3" x="1766.57" y="185.49" width="5.42" height="96.56"/><path class="cls-12" d="M676.15,1608.76a3.22,3.22,0,0,0-3.86,2.42L643,1739.06c-7.91.24-16,8.8-18.69,20.73L621.53,1772a18,18,0,0,0-.38,2l32.52,7.45a8.52,8.52,0,0,0,.63-2l2.79-12.19c2.73-11.89-.76-23.08-7.8-26.77l29.28-127.9A3.22,3.22,0,0,0,676.15,1608.76Z"/><path class="cls-5" d="M591.05,1773.82s67.54-17.49,89.1-3.25-11,29.29-11,29.29Z"/><g id="P297LW-2" data-name="P297LW"><path class="cls-15" d="M1112.6,1002.65c-12.91,39.52-83.27,107.82-93,114.63,0,0-16.37-27.28-13.1-42.56,2.67-12.47,30.07-56.93,39.44-78.78.49-1.14.93-2.22,1.31-3.22,1.29-3.35,2-6,1.81-7.49-.47-4.75-15.38-16.29-32.73-30-22.53-17.81-49.16-39.23-53.48-54-7.64-26.19-34.11-129.9-34.11-129.9s65.76,14.22,84.31,30.59,98.22,152.78,101.49,187.71A32.85,32.85,0,0,1,1112.6,1002.65Z"/><path class="cls-10" d="M1112.6,1002.65c-12.91,39.52-83.27,107.82-93,114.63,0,0-16.37-27.28-13.1-42.56,2.82-13.12,33-61.64,40.75-82C1059,990.69,1086.4,988.2,1112.6,1002.65Z"/><path class="cls-10" d="M928.77,762.18l0,8.06s2.19,25.18-28.82,28.86-54.37-7.56-53.53-27c2.79-15.05,5.72-27.64,5.93-40.09a88.5,88.5,0,0,0-1.11-15.08l60.1-1.21,17.7,2.9Z"/><path class="cls-11" d="M929,718.62l-.23,43.56A50.76,50.76,0,0,1,907.11,767c-27.62,0-45.47-20.25-54.8-35a88.5,88.5,0,0,0-1.11-15.08l60.1-1.21Z"/><path class="cls-9" d="M875.8,1830.2s-2.92-22.73-9.67-36.24-49.75-4.91-49.75-4.91-8.6,7.37-10.44,41.76Z"/><path class="cls-9" d="M1022.27,1830.12c-10.1-6.16-4.35-52.16-4.35-52.16s47.07-37.66,53.54-8.83,44.72,41.78,66.49,45.31c15,2.44,19.68,10.76,21.12,15.68Z"/><path class="cls-12" d="M924.77,1490.46a216.14,216.14,0,0,1,3.46,25.43c4.37,85.35,71.84,280.5,83.91,285,18.68,7,48.08-7.93,63.47-12.83,6.37-2,10.67-8.47,9.25-15-33.41-153.61-45.69-374.79-50.16-505.74-2.25-66-13.57-111.53-13.57-111.53s-164.56-43.9-165.54,11.64C854.72,1216.63,910.1,1409.38,924.77,1490.46Z"/><path class="cls-9" d="M924.77,1490.46l109.93-223.08c-2.25-66-13.57-111.53-13.57-111.53s-164.56-43.9-165.54,11.64C854.72,1216.63,910.1,1409.38,924.77,1490.46Z"/><path class="cls-12" d="M961.39,1167.68l-87,630.5s-38.2,9.21-67.91,1.84c0,0-25.47-335.33-23.35-416.39s-18.28-216.93,4.66-231.91S961.39,1167.68,961.39,1167.68Z"/><path class="cls-15" d="M1025.86,1168.85S981.41,1194.77,917,1194a482.4,482.4,0,0,1-65.47-4.93c-51.64-7.66-77.7-22.07-77.49-27.44.17-4.85.51-21,1.12-27.87,8.21-94.64,4-168.25,15-223.54.13-.67.26-1.34.4-2C805.2,838,828.11,797.58,839.48,781c4.16-6,6.77-8.91,6.9-8.91,0,13.12,27.94,24.45,50.71,23,19.19-1.25,31.64-15.84,31.64-23.74l0,0c1.57,0,86.55,59.06,86.62,113.94C1015.67,1131.21,1030.57,1168.93,1025.86,1168.85Z"/><path class="cls-4" d="M851.67,1188.31c0,.27-.07.54-.12.8-51.64-7.66-77.7-22.07-77.49-27.44.17-4.85.51-21,1.12-27.87,8.21-94.64,4-168.25,15-223.54C817.29,946.49,873,1041.38,851.67,1188.31Z"/><path class="cls-20" d="M993.13,1070.66l-6.94,23.1-6.9,22.91-299.57-90.11a3.61,3.61,0,0,1-1.23-.14,3.92,3.92,0,0,1-1.16-.57c-3.77-2.67-4.46-12.46-1.56-23.49.15-.61.33-1.23.51-1.85,3.51-11.86,9.88-20.63,14.77-20.71a3.84,3.84,0,0,1,1.17.15,4,4,0,0,1,1.1.54Z"/><path class="cls-21" d="M986.19,1093.76l-6.9,22.91-299.57-90.11a3.61,3.61,0,0,1-1.23-.14,3.92,3.92,0,0,1-1.16-.57c-3.77-2.67-4.46-12.46-1.56-23.49,12.25,9.19,70.73,49.84,170.56,69.61C949.51,1092.41,981.44,1093.69,986.19,1093.76Z"/><path class="cls-22" d="M993.71,1070.53c-5-1.48-12.15,7.73-15.94,20.56S975,1115.53,980,1117s12.14-7.73,15.93-20.56S998.72,1072,993.71,1070.53Z"/><path class="cls-20" d="M695.49,972l-35.31-5.72a4.24,4.24,0,0,0-1.17-.39,4.17,4.17,0,0,0-1.17,0c-4.85.72-10,10.25-11.93,22.47-.11.65-.19,1.27-.27,1.9a48.8,48.8,0,0,0,.13,14.43c.79,4.29,2.3,7.41,4.38,8.58l.12.08a4.09,4.09,0,0,0,1.22.41,4,4,0,0,0,1.24,0l308.8,50.1,3.83-23.62,3.85-23.8Z"/><path class="cls-21" d="M823.84,1037c-66-4.25-101.05-39.17-128.35-64.94l-35.31-5.72a4.24,4.24,0,0,0-1.17-.39,4.17,4.17,0,0,0-1.17,0c-4.85.72-10,10.25-11.93,22.47-.11.65-.19,1.27-.27,1.9a48.8,48.8,0,0,0,.13,14.43c1.66,4.69,3.36,7.88,4.38,8.58l.12.08a4.09,4.09,0,0,0,1.22.41,4,4,0,0,0,1.24,0l308.8,50.1,3.83-23.62C960.64,1040.8,928.82,1043.71,823.84,1037Z"/><path class="cls-22" d="M969.77,1016.23c-5.16-.81-11,9.25-13.11,22.47s.42,24.59,5.58,25.4,11-9.24,13.11-22.46S974.93,1017,969.77,1016.23Z"/><path class="cls-10" d="M859.91,1107.1c-71.62-11.39-119-41.41-138.4-55.92-6.64-5-10-8.11-10-8.11-36.7-77.16,29.7-212.44,41.83-235.37,13.1-24.73,93.06-35.6,93.06-35.6a435.46,435.46,0,0,0-17.76,86.54c-5,49-58.2,144.41-56,152.42.55,2,7,6.26,16.35,11.6,27.8,15.83,81.51,41.34,84.78,47.33C878.09,1078,859.91,1107.1,859.91,1107.1Z"/><path class="cls-10" d="M873.73,1070s40-16,49.84-9.46,26.19,16.37,26.19,22.92-20.73,24-38.2,29.47-51.65-5.82-51.65-5.82Z"/><path class="cls-15" d="M828.62,858.64c-5,49-58.2,144.41-56,152.42.55,2,7,6.26,16.35,11.6a15.35,15.35,0,0,1-1.8,0c-41.86-1.85-60.81,21.31-65.64,28.48-6.64-5-10-8.11-10-8.11-36.7-77.16,29.7-212.44,41.83-235.37,13.1-24.73,93.06-35.6,93.06-35.6A435.46,435.46,0,0,0,828.62,858.64Z"/><path class="cls-10" d="M932.51,739.79s-77,15.55-85.92-32.54-24.9-78.46,23.87-90.42,61.75,4.61,68.64,19.93S952.3,734.5,932.51,739.79Z"/><path class="cls-9" d="M848.13,721.12s-14.88-31.76-27.29-45.87-5.64-84.61,47.95-82.35,72.77,40.61,73.33,48-42.87,1.69-54.72,11.28-.56,25.38-14.1,31-24.25,5.64-22,18.05S848.13,721.12,848.13,721.12Z"/><path class="cls-15" d="M864.67,560.15c-15.33,3.86-26.84,10-35.42,17.42-.86.73-1.69,1.49-2.48,2.25h0c-31.78,30.31-19.1,78.55-19.1,78.55s4.23,12.18,7.14,16.91,45.11-.73,47.29-9.82,10.55-18.55,10.55-18.55,44.48-3.06,47.47-3.28c10-.73,38.73-10.7,38.73-10.7C958.51,630.12,942.37,540.64,864.67,560.15Z"/><path class="cls-4" d="M985.19,623.48c-5.33-1.3-14.43-2.75-29.43-3.3,0,0-12.59,10.43-37.61,18.38-11.77-14.83-45.27-50.54-88.9-61l-.39-.1c-.92,1.17-1.45,1.57-2.09,2.35h0a8.64,8.64,0,0,0-.64.84c35.52,6.19,69.28,46.08,80.87,61a199.08,199.08,0,0,1-34.35,5.23s77.74,1.45,113.27-17.26A3.33,3.33,0,0,0,985.19,623.48Z"/><path class="cls-4" d="M1064.35,976.5c-1.44,8.16-5.84,16.75-18.4,19.44.49-1.14.93-2.22,1.31-3.22,1.29-3.35,2-6,1.81-7.49-.47-4.75-15.38-16.29-32.73-30-1.43-7.77-4.92-30.83,0-49.13C1022.34,883.74,1066,967.22,1064.35,976.5Z"/><path class="cls-4" d="M780.6,1017.15s-53.47-4.36-70.93,26.74c0,0,1.49,10.49,11.84,7.29,0,0,45.23-30.92,67.44-28.52C789,1022.66,785.52,1017.24,780.6,1017.15Z"/><path class="cls-4" d="M1046,995.94s27.75,1.16,62.67,16.37c0,0,7.75-7.62,4.66-12S1061,980.27,1046,995.94Z"/></g><path class="cls-10" d="M1431.06,814.27c24-123.23,46.08-241.2,46.08-241.2s-68.44,10.36-97.91,34.92S1346.79,788.9,1337,833.1c-1.94,8.67-3.67,22.69-5.17,39.76-5.58,63.56,1.37,158.76,6.63,185.45-.34,2.56-2.52,15.16-14.12,39.33,0,0-6,18.55,33.28,46.38C1382.63,1161.76,1405,948.22,1431.06,814.27Z"/><path class="cls-16" d="M1477.14,573.07s-12.71,68-29.34,154.65c-5.27,27.5-10.94,56.87-16.74,86.55-23.55,46.17-43.76,77.55-50,71.65-12.74-12-35.1-13.51-49.26-13.06,1.5-17.07,3.23-31.09,5.17-39.76.77-3.49,1.5-7.69,2.21-12.45,8.24-55.62,12.91-190,40-212.66C1408.7,583.43,1477.14,573.07,1477.14,573.07Z"/><path class="cls-17" d="M1447.8,727.72c-5.27,27.5-10.94,56.87-16.74,86.55-23.55,46.17-43.76,77.55-50,71.65-12.74-12-35.1-13.51-49.26-13.06,1.5-17.07,3.23-31.09,5.17-39.76.77-3.49,1.5-7.69,2.21-12.45l70.61-170.46Z"/><path class="cls-10" d="M1574.87,571.33c.52-23.8.13-52.2-3.09-76.21l-95,15.52s0,29,.42,61.14h-.09s-2.59,29.84,34.15,34.2S1575.86,594.35,1574.87,571.33Z"/><path class="cls-11" d="M1476.55,516.5s22.37,45.84,48,45.84,49.65-43.11,49.65-43.11Z"/><path class="cls-9" d="M1539.85,1830.29s3.45-26.92,11.45-42.93,58.94-5.82,58.94-5.82,10.18,8.73,12.37,49.48Z"/><path class="cls-9" d="M1366.33,1829.92c12-7.3,5.16-61.79,5.16-61.79s-55.77-44.61-63.43-10.46-53,49.49-78.77,53.68c-17.8,2.88-23.31,12.74-25,18.57Z"/><path class="cls-9" d="M1583.91,467.74s63.4-100-58.33-106.57c0,0-45.66,5.37-56-5,0,0-35.41,53.83-2.34,111.54S1583.91,467.74,1583.91,467.74Z"/><path class="cls-10" d="M1479.63,519.9c9.23,7.26,36.29,14.47,44.11,15.31,0,0,40.12-8.94,47.41-13.34,11.3-6.85,10.57-20.71,11.15-40,.7-22.8,3-40.71.45-53.86-3-15.73-13-24.68-40.92-27.11-51.25-4.45-72.6,8.39-73.49,25.57-.24,4.62-.45,9-.6,13.18C1465.69,493.26,1469.92,512.26,1479.63,519.9Z"/><path class="cls-12" d="M1481.83,1425c-2.27,12.5-3.71,22.76-4.09,30.12-5.19,101.11-85.12,332.3-99.41,337.69-22.12,8.35-57-9.4-75.18-15.2-7.56-2.41-12.65-10-11-17.76,39.58-182,54.13-444,59.42-599.13,2.67-78.14,16.09-132.12,16.09-132.12s194.94-52,196.1,13.78C1564.82,1100.62,1499.21,1329,1481.83,1425Z"/><path class="cls-9" d="M1481.83,1425,1351.6,1160.73c2.67-78.14,16.09-132.12,16.09-132.12s194.94-52,196.1,13.78C1564.82,1100.62,1499.21,1329,1481.83,1425Z"/><path class="cls-12" d="M1438.46,1042.63l103,746.91s45.26,10.92,80.46,2.19c0,0,30.17-397.25,27.66-493.29s21.65-257-5.52-274.73S1438.46,1042.63,1438.46,1042.63Z"/><path class="cls-15" d="M1658.92,1023.71a15.39,15.39,0,0,1-15.16,16l-162.4,2.48L1362.08,1044c-5.59.1,12.07-44.59,12.43-336,.09-65,100.75-135,102.61-135l0,0c0,9.36,14.75,26.65,37.49,28.13,27,1.77,60.07-11.66,60.07-27.2,0-.17,3.13,3.22,8.18,10.56,13.46,19.62,40.59,67.46,57.91,150.75,13.68,65.78,8.42,153.72,18.26,267.19C1659.77,1010.69,1658.71,1018,1658.92,1023.71Z"/><path class="cls-16" d="M1652.93,1040.62s-21.59,9.67-62,18c-30,6.23-70.42,11.75-120,12-78.94.51-108.83-26.7-108.83-26.7-5.59.1,12.07-44.59,12.43-336,.09-65,100.75-135,102.61-135l0,0s-2.59,86.58,23.6,112c0,0,36.74-28.37,84.4-109.13,13.46,19.62,38.33,76,55.65,159.33,3.52,17,5.79,35.36,7.38,55.3,4.6,57.47,3.57,127.64,10.88,211.89.72,8.19-.34,15.47-.13,21.21C1659.26,1032.37,1661.58,1040.48,1652.93,1040.62Z"/><path class="cls-17" d="M1652.93,1040.62s-21.59,9.67-62,18c-12.7-19.38-28.71-54.34-30.92-109.44C1556.28,856,1644.79,736,1644.79,736l3.38,54.57c4.6,57.47,3.57,127.64,10.88,211.89.72,8.19-.34,15.47-.13,21.21C1659.26,1032.37,1661.58,1040.48,1652.93,1040.62Z"/><rect class="cls-12" x="1473.46" y="752.65" width="174.22" height="238.98" transform="translate(-226.99 897.13) rotate(-30)"/><path class="cls-10" d="M1670.26,604.35c-18.48-14-61.88-23.87-83.24-28.09-7.53-1.48-12.32-2.26-12.32-2.26,2.23,10.27,7.24,26.38,13.79,45.72,27.43,81,81.81,218.88,70.86,221.81a300.52,300.52,0,0,1-32.87,6.33c-47.7,7-111.89,10.08-118.6,10.39-.53-.49-23.39-21.81-32.29-21.81s-35,9.46-37.62,16.74-3.7,20.37,3.71,23.28,38.14,10.19,46.09,10.91a21.34,21.34,0,0,0,3.82,0c57.08,16.78,106.2,25,144.06,28.91,52.82,5.42,83.72,2.41,83.72,2.41C1757.63,836.31,1695.25,623.25,1670.26,604.35Z"/><path class="cls-16" d="M1719.37,918.66s-30.9,3-83.72-2.41c2.92-14.35,5.62-42.38-9.17-68.39a300.52,300.52,0,0,0,32.87-6.33c11-2.93-43.43-140.76-70.86-221.81-2.2-26.2-3.35-43.74-3.35-43.74l1.88.28c21.36,4.22,64.76,14.12,83.24,28.09C1695.25,623.25,1757.63,836.31,1719.37,918.66Z"/><path class="cls-17" d="M1500.74,685.11s73.48-32.37,74.57-34.92-3.63-22.19-8.73-28c0,0,35.29,3.27,37.47-1.09s3.82-40.28,3.82-40.28-14.69-15.21-32.87-16.66c0,0-16,39.68-21.88,51.48C1537.48,646.92,1500.74,685.11,1500.74,685.11Z"/><path class="cls-17" d="M1483.28,621.09s4.73,37.83,17.46,64c0,0-38.38-26.73-41.65-35.47s9.27-25.64,9.27-25.64-22.92-.55-23.46-8.19,7.09-37.65,7.09-37.65,19.72-14.39,25.17-13.84Z"/><path class="cls-15" d="M1607.68,412.05l-163.19,1.75s-2.4-49.21,25.88-80.59c1.29-1.45,2.66-2.85,4.11-4.22a72.75,72.75,0,0,1,22.29-14.49c32.62-13.6,59.67-1,76.58,11.82,1.66,1.26,3.23,2.52,4.69,3.78a98.25,98.25,0,0,1,14.32,14.78S1608.21,366.5,1607.68,412.05Z"/><path class="cls-4" d="M1561.84,412.54c-.45-6.62-3.33-63.06,16.49-82.19a32.49,32.49,0,0,0-2.7-2.26c-21.14,22-22.82,77.54-22.73,84.55l-52.17.56c-1.55-40-23.6-79.77-26.25-84.21a36.42,36.42,0,0,0-3,3.09c3.83,6.73,18.23,45.27,19.61,81.22l-46.59.5s43.46,11.23,76.2,10.83,87-12.58,87-12.58Z"/></svg>